<?xml version="1.0" encoding="utf-8"?>
<!-- Generator: Adobe Illustrator 16.0.3, SVG Export Plug-In . SVG Version: 6.00 Build 0)  -->
<!DOCTYPE svg PUBLIC "-//W3C//DTD SVG 1.1//EN" "http://www.w3.org/Graphics/SVG/1.1/DTD/svg11.dtd">
<svg xmlns="http://www.w3.org/2000/svg" xmlns:xlink="http://www.w3.org/1999/xlink" version="1.1" x="0px" y="0px" width="650px" height="300px" viewBox="0 0 650 300" xml:space="preserve">
<g id="Warstwa_2">
	<rect fill="#FADE79" width="649.51" height="300"/>
</g>
<g id="Warstwa_1">
	<g opacity="0.5">
		<path fill="#414042" d="M95.693,203.174c0-3.687-3.002-6.686-6.688-6.686s-6.687,2.999-6.687,6.686c0,3.688,3,6.686,6.687,6.686    S95.693,206.861,95.693,203.174z M89.005,208.264c-2.807,0-5.091-2.285-5.091-5.09c0-2.807,2.284-5.089,5.091-5.089    c2.809,0,5.091,2.282,5.091,5.089C94.096,205.979,91.813,208.264,89.005,208.264z M104.798,199.469l-2.246-0.002    c-0.306-1.123-0.753-2.201-1.332-3.218l1.591-1.59c0.502-0.503,0.778-1.17,0.778-1.879c0-0.711-0.274-1.377-0.777-1.877    l-1.52-1.522c-1.004-1.001-2.751-1.001-3.753,0l-1.588,1.589c-1.015-0.579-2.09-1.027-3.214-1.335v-2.246    c0-1.464-1.192-2.654-2.657-2.654h-2.146c-1.465,0-2.658,1.19-2.658,2.654v2.243c-1.092,0.302-2.146,0.736-3.144,1.3l-1.583-1.6    c-1-1.006-2.753-1.014-3.754-0.018l-1.53,1.515c-1.039,1.03-1.046,2.715-0.017,3.752l1.582,1.599    c-0.582,1.009-1.034,2.084-1.35,3.206l-2.256-0.007c-1.459,0-2.65,1.186-2.651,2.644l-0.013,2.15    c-0.002,0.71,0.273,1.378,0.773,1.881c0.502,0.502,1.168,0.781,1.873,0.781l2.24,0.009c0.307,1.128,0.751,2.207,1.327,3.222    l-1.595,1.585c-0.503,0.497-0.782,1.163-0.784,1.869c-0.004,0.713,0.271,1.383,0.771,1.888l1.511,1.522    c1,1.006,2.756,1.013,3.757,0.014l1.592-1.584c1.013,0.581,2.089,1.031,3.215,1.346l-0.008,2.245    c-0.002,1.463,1.184,2.659,2.648,2.663l2.155,0.005c1.46,0,2.651-1.186,2.656-2.646l0.005-2.245    c1.118-0.304,2.196-0.749,3.218-1.328l1.587,1.594c0.998,1.006,2.751,1.012,3.757,0.008l1.522-1.517    c0.502-0.5,0.779-1.167,0.781-1.875c0.002-0.708-0.275-1.377-0.775-1.878l-1.585-1.595c0.581-1.013,1.029-2.09,1.34-3.213    l2.251,0.002c1.459,0,2.65-1.188,2.655-2.651l0.002-2.147C107.447,200.663,106.259,199.471,104.798,199.469z M105.847,204.27    c-0.001,0.585-0.476,1.06-1.059,1.06l-3.507-0.006l-0.142,0.622c-0.314,1.377-0.858,2.685-1.619,3.885l-0.34,0.538l2.474,2.489    c0.199,0.199,0.311,0.465,0.311,0.748c-0.002,0.283-0.113,0.549-0.312,0.748l-1.522,1.514c-0.403,0.402-1.099,0.4-1.497,0    l-2.479-2.49l-0.541,0.341c-1.21,0.759-2.521,1.299-3.892,1.605l-0.622,0.139l-0.007,3.505c-0.001,0.581-0.478,1.054-1.06,1.054    v0.799l-0.005-0.799l-2.146-0.004c-0.583-0.002-1.057-0.479-1.055-1.063l0.011-3.505l-0.621-0.144    c-1.382-0.317-2.688-0.862-3.884-1.625l-0.539-0.344l-2.493,2.475c-0.393,0.398-1.098,0.396-1.493-0.008l-1.511-1.522    c-0.201-0.2-0.312-0.47-0.311-0.753c0.002-0.281,0.111-0.546,0.312-0.745l2.493-2.476l-0.341-0.541    c-0.753-1.197-1.294-2.509-1.601-3.892l-0.139-0.621l-3.502-0.015c-0.282,0-0.548-0.111-0.745-0.311    c-0.2-0.201-0.31-0.469-0.309-0.749l0.011-2.151c0.002-0.579,0.474-1.052,1.061-1.052l3.504,0.014l0.144-0.621    c0.321-1.381,0.871-2.688,1.631-3.882l0.343-0.539l-2.469-2.489c-0.41-0.415-0.406-1.089,0.007-1.498l1.53-1.512    c0.398-0.395,1.1-0.393,1.495,0.006l2.471,2.496l0.541-0.339c1.192-0.741,2.478-1.273,3.825-1.578l0.624-0.14v-3.506    c0-0.583,0.474-1.058,1.06-1.058h2.146c0.585,0,1.06,0.475,1.06,1.058v3.506l0.624,0.14c1.378,0.313,2.685,0.856,3.884,1.616    l0.541,0.344l2.482-2.483c0.399-0.398,1.094-0.398,1.497,0.002l1.518,1.521c0.2,0.198,0.311,0.465,0.311,0.747    s-0.111,0.549-0.312,0.748l-2.482,2.482l0.339,0.541c0.761,1.201,1.301,2.509,1.609,3.886l0.14,0.622l3.506,0.007    c0.582,0.002,1.056,0.477,1.056,1.06L105.847,204.27z M97.249,208.209c-1.247,2.247-3.369,3.958-5.823,4.689    c-0.076,0.021-0.153,0.033-0.227,0.033c-0.345,0-0.663-0.226-0.766-0.572c-0.125-0.422,0.115-0.867,0.537-0.993    c2.056-0.612,3.838-2.046,4.883-3.931c0.215-0.389,0.707-0.52,1.084-0.312C97.325,207.339,97.463,207.824,97.249,208.209z     M80.864,200.677c-0.118,0.327-0.424,0.53-0.752,0.53c-0.089,0-0.181-0.018-0.27-0.048c-0.415-0.147-0.629-0.605-0.482-1.021    c1.214-3.388,4.022-5.935,7.51-6.813c0.432-0.107,0.86,0.155,0.97,0.581c0.105,0.429-0.153,0.861-0.581,0.971    C84.289,195.624,81.897,197.793,80.864,200.677z"/>
		<path fill="#414042" d="M575.719,103.881c-1.747,0-3.285,0.839-4.289,2.116l-10.127-6.223c0.086-0.381,0.137-0.779,0.137-1.187    c0-0.643-0.133-1.252-0.335-1.826l10.3-5.614c0.999,1.294,2.553,2.145,4.314,2.145c3.02,0,5.476-2.456,5.476-5.472    c0-3.02-2.456-5.476-5.476-5.476c-3.018,0-5.474,2.456-5.474,5.476c0,0.641,0.132,1.25,0.336,1.824l-10.3,5.613    c-1.002-1.294-2.554-2.146-4.314-2.146c-3.019,0-5.475,2.457-5.475,5.475c0,3.018,2.456,5.474,5.475,5.474    c1.993,0,3.724-1.084,4.682-2.68l9.946,6.108c-0.213,0.585-0.35,1.207-0.35,1.865c0,3.019,2.456,5.475,5.474,5.475    c3.02,0,5.476-2.457,5.476-5.475S578.738,103.881,575.719,103.881z M575.719,84.056c2.074,0,3.764,1.688,3.764,3.765    c0,2.073-1.689,3.761-3.764,3.761s-3.762-1.688-3.762-3.761C571.957,85.744,573.645,84.056,575.719,84.056z M555.967,102.349    c-2.073,0-3.764-1.688-3.764-3.762c0-2.075,1.69-3.764,3.764-3.764c2.074,0,3.76,1.689,3.76,3.764    C559.727,100.661,558.041,102.349,555.967,102.349z M575.719,113.117c-2.074,0-3.762-1.688-3.762-3.762s1.688-3.763,3.762-3.763    s3.764,1.688,3.764,3.763S577.793,113.117,575.719,113.117z"/>
		<path fill="#414042" d="M95.437,81.841l-0.216-0.026l-9.078-3.011c-0.222-0.074-0.401-0.226-0.506-0.435    c-0.105-0.208-0.122-0.447-0.048-0.668c0.118-0.356,0.45-0.595,0.825-0.595l0.217,0.026l9.081,3.012    c0.456,0.154,0.703,0.647,0.552,1.102C96.143,81.602,95.811,81.841,95.437,81.841z M113.165,82.739    c0.146-0.455-0.104-0.946-0.563-1.094l-7.168-2.297l-0.207-0.022c-0.384,0-0.717,0.244-0.832,0.605    c-0.07,0.22-0.052,0.455,0.053,0.663c0.107,0.207,0.288,0.361,0.509,0.431l7.168,2.297l0.209,0.024    C112.715,83.347,113.049,83.103,113.165,82.739z M119.525,81.415h9.626v11.599h-3.583l-2.963,11.827h-6.038V93.708l-19.712,5.528    V74.193l22.67,7.264V81.415z M102.539,77.845v17.988l16.986-4.761v-7.787L102.539,77.845z M121.267,83.159v8.113h6.143v-8.113    H121.267z M119.525,93.014v-0.135l-1.216,0.342v1.009h1.972v1.741h-1.972v1.215h1.972v1.741h-1.972v1.216h1.972v1.742h-1.972    v1.214h2.936l2.528-10.085H119.525z M100.796,96.322V77.285l-2.199-0.705v20.36L100.796,96.322z M96.307,87.054    c0.004-0.219-0.078-0.45-0.219-0.632c-0.166-0.21-0.398-0.334-0.638-0.338l-9.023-0.173c-0.511,0-0.876,0.369-0.882,0.838    c-0.003,0.209,0.074,0.451,0.203,0.645c0.168,0.249,0.406,0.395,0.655,0.399l9.021,0.293h0.013    C95.968,88.085,96.302,87.484,96.307,87.054z M85.637,95.364c-0.105,0.209-0.122,0.444-0.048,0.665    c0.116,0.356,0.448,0.598,0.826,0.598h0.059l0.211-0.044l9.026-2.995c0.456-0.153,0.703-0.646,0.552-1.102    c-0.118-0.356-0.451-0.595-0.823-0.595h-0.063l-0.218,0.046l-9.019,2.992C85.921,95.001,85.742,95.156,85.637,95.364z"/>
		<path fill="#414042" d="M511.75,211.542c0,0.455-0.371,0.825-0.828,0.825h-0.896c-0.455,0-0.827-0.37-0.827-0.825    s0.372-0.824,0.827-0.824h0.896C511.379,210.718,511.75,211.087,511.75,211.542z M530.152,216.61    c0,9.244-7.521,16.764-16.766,16.764c-9.243,0-16.765-7.52-16.765-16.764c0-9.242,7.521-16.761,16.765-16.761    C522.631,199.85,530.152,207.368,530.152,216.61z M528.499,216.61c0-8.332-6.778-15.113-15.112-15.113    c-8.332,0-15.111,6.781-15.111,15.113c0,8.333,6.779,15.114,15.111,15.114C521.721,231.725,528.499,224.943,528.499,216.61z     M516.307,210.718h-0.897c-0.455,0-0.825,0.369-0.825,0.824s0.37,0.825,0.825,0.825h0.897c0.455,0,0.825-0.37,0.825-0.825    S516.762,210.718,516.307,210.718z M524.321,226.256l-1.653,0.039l-0.133-5.549c0-0.675-0.531-1.201-1.21-1.201h-3.68    l-4.486,5.877l-4.673-6.021l-3.472,0.145c-0.684,0-1.216,0.52-1.216,1.183l-0.132,5.567l-1.654-0.039l0.134-5.549    c0-1.55,1.283-2.812,2.865-2.812h2.672c-1.049-1.261-1.626-2.837-1.626-4.482v-3.74c0-3.877,3.156-7.03,7.034-7.03    c4.026,0,7.182,3.087,7.182,7.03v3.74c0,1.637-0.602,3.261-1.66,4.519l2.708-0.036c1.583,0,2.869,1.27,2.869,2.832    L524.321,226.256z M507.863,208.437c0.352,0.064,0.834,0.128,1.37,0.128c1.4,0,3.313-0.423,4.479-2.431l0.498-0.863l0.755,0.646    c0.705,0.607,2.178,1.568,3.13,1.568c0.017,0,0.034-0.002,0.049-0.002c-0.855-1.916-2.797-3.188-4.903-3.188h-0.148    C510.598,204.294,508.432,206.025,507.863,208.437z M515.231,220.155c-0.646,0.191-1.311,0.288-1.991,0.288    c-0.739,0-1.418-0.087-2.061-0.268l1.995,2.566L515.231,220.155z M518.619,213.413v-3.74c0-0.195-0.012-0.389-0.034-0.579    c-0.156,0.028-0.319,0.04-0.489,0.04c-1.24,0-2.549-0.734-3.478-1.395c-1.573,2.023-3.803,2.454-5.416,2.454    c-0.494,0-0.994-0.038-1.487-0.114v3.334c0,2.965,2.409,5.379,5.377,5.379C516.191,218.792,518.619,216.429,518.619,213.413z"/>
		<g>
			<path fill="#414042" d="M572.074,75.809h64.999c1.135,0,2.048-0.42,2.048-0.945c0-0.52-0.913-0.945-2.048-0.945h-64.999     c-1.129,0-2.035,0.425-2.035,0.945C570.039,75.389,570.945,75.809,572.074,75.809z"/>
		</g>
		<g>
			<path fill="#414042" d="M480.583,57.548h-13.374c-0.232,0-0.42-0.42-0.42-0.945c0-0.52,0.188-0.945,0.42-0.945h13.374     c0.232,0,0.419,0.425,0.419,0.945C481.002,57.127,480.815,57.548,480.583,57.548z"/>
		</g>
		<g>
			<path fill="#414042" d="M519.39,43.471h-49.657c-0.863,0-1.563-0.42-1.563-0.944c0-0.521,0.699-0.945,1.563-0.945h49.657     c0.864,0,1.557,0.425,1.557,0.945C520.946,43.05,520.254,43.471,519.39,43.471z"/>
		</g>
		<g>
			<path fill="#414042" d="M90.069,59.176h49.997c0.871,0,1.573-0.42,1.573-0.944c0-0.52-0.702-0.945-1.573-0.945H90.069     c-0.869,0-1.567,0.425-1.567,0.945C88.502,58.756,89.2,59.176,90.069,59.176z"/>
		</g>
		<g>
			<path fill="#414042" d="M146.104,64.635h39.627c0.69,0,1.247-0.421,1.247-0.945c0-0.521-0.557-0.945-1.247-0.945h-39.627     c-0.688,0-1.24,0.424-1.24,0.945C144.864,64.214,145.416,64.635,146.104,64.635z"/>
		</g>
		<g>
			<path fill="#414042" d="M129.229,254.905H90.232c-0.683,0-1.229-0.42-1.229-0.944c0-0.521,0.546-0.945,1.229-0.945h38.998     c0.679,0,1.222,0.425,1.222,0.945C130.451,254.485,129.908,254.905,129.229,254.905z"/>
		</g>
		<g>
			<path fill="#414042" d="M228.211,270.49h-92.819c-1.624,0-2.925-0.42-2.925-0.945c0-0.52,1.301-0.944,2.925-0.944h92.819     c1.613,0,2.906,0.425,2.906,0.944C231.117,270.07,229.824,270.49,228.211,270.49z"/>
		</g>
		<g>
			<path fill="#414042" d="M54.673,164.482h43.24c0.757,0,1.361-0.421,1.361-0.945c0-0.521-0.604-0.943-1.361-0.943h-43.24     c-0.75,0-1.353,0.423-1.353,0.943C53.32,164.062,53.923,164.482,54.673,164.482z"/>
		</g>
		<g>
			<path fill="#414042" d="M92.611,127.773h35.728c0.624,0,1.126-0.421,1.126-0.945c0-0.521-0.502-0.944-1.126-0.944H92.611     c-0.622,0-1.12,0.424-1.12,0.944C91.491,127.352,91.989,127.773,92.611,127.773z"/>
		</g>
		<g>
			<path fill="#414042" d="M491.474,187.082h23.725c0.415,0,0.747-0.42,0.747-0.944c0-0.521-0.332-0.944-0.747-0.944h-23.725     c-0.411,0-0.741,0.424-0.741,0.944C490.732,186.662,491.063,187.082,491.474,187.082z"/>
		</g>
		<g>
			<path fill="#414042" d="M576.778,156.344h18.103c0.317,0,0.57-0.421,0.57-0.945c0-0.52-0.253-0.944-0.57-0.944h-18.103     c-0.313,0-0.566,0.425-0.566,0.944C576.212,155.923,576.465,156.344,576.778,156.344z"/>
		</g>
		<g>
			<path fill="#414042" d="M490.964,253.96h47.063c1.411,0,2.541-0.422,2.541-0.945c0-0.521-1.13-0.944-2.541-0.944h-47.063     c-1.397,0-2.521,0.424-2.521,0.944C488.442,253.538,489.566,253.96,490.964,253.96z"/>
		</g>
		<g>
			<path fill="#414042" d="M547.866,234.369h35.948c0.631,0,1.131-0.421,1.131-0.945c0-0.521-0.5-0.944-1.131-0.944h-35.948     c-0.625,0-1.125,0.424-1.125,0.944C546.741,233.948,547.241,234.369,547.866,234.369z"/>
		</g>
		<g>
			<path fill="#414042" d="M529.522,187.082h50.644c0.885,0,1.594-0.42,1.594-0.944c0-0.521-0.709-0.944-1.594-0.944h-50.644     c-0.878,0-1.582,0.424-1.582,0.944C527.94,186.662,528.645,187.082,529.522,187.082z"/>
		</g>
		<g>
			<path fill="#414042" d="M59.424,51.917l-4.879-4.88l4.879-4.877l4.877,4.877L59.424,51.917z M57.885,47.037l1.539,1.54     l1.537-1.54l-1.537-1.538L57.885,47.037z"/>
		</g>
		<g>
			<path fill="#414042" d="M54.546,101.378L49.667,96.5l4.879-4.879l4.877,4.879L54.546,101.378z M53.007,96.5l1.539,1.538     l1.537-1.538l-1.537-1.54L53.007,96.5z"/>
		</g>
		<g>
			<path fill="#414042" d="M43.862,213.204l-3.707-3.707l3.707-3.707l3.705,3.707L43.862,213.204z M42.694,209.497l1.168,1.17     l1.168-1.17l-1.168-1.167L42.694,209.497z"/>
		</g>
		<g>
			<path fill="#414042" d="M563.862,50.864l-4.169-4.17l4.169-4.168l4.166,4.168L563.862,50.864z M562.547,46.694l1.315,1.314     l1.314-1.314l-1.314-1.313L562.547,46.694z"/>
		</g>
		<path fill="#414042" d="M528.924,66.96c-0.063-0.04-0.107-0.102-0.125-0.176c-0.017-0.072-0.004-0.147,0.035-0.21    c0.051-0.082,0.14-0.132,0.24-0.132c0.05,0,0.099,0.014,0.144,0.04l1.655,1.022c0.063,0.038,0.107,0.102,0.125,0.175    c0.019,0.071,0.005,0.148-0.035,0.212c-0.05,0.084-0.141,0.133-0.238,0.133c-0.049,0-0.102-0.015-0.147-0.041L528.924,66.96z     M530.946,70.275c0.021-0.072,0.013-0.147-0.022-0.212c-0.05-0.088-0.144-0.145-0.245-0.145c-0.048,0-0.093,0.011-0.137,0.033    l-1.705,0.932c-0.065,0.037-0.114,0.096-0.135,0.168c-0.02,0.07-0.015,0.148,0.022,0.213c0.048,0.09,0.143,0.145,0.246,0.145    c0.048,0,0.092-0.011,0.134-0.033l1.708-0.932C530.878,70.409,530.926,70.349,530.946,70.275z M534.679,67.927    c0.052,0.088,0.145,0.141,0.246,0.141c0.046,0,0.094-0.012,0.138-0.036l1.688-0.962c0.065-0.036,0.113-0.096,0.132-0.168    c0.021-0.072,0.011-0.147-0.027-0.214c-0.05-0.086-0.143-0.14-0.243-0.14c-0.048,0-0.096,0.014-0.138,0.038l-1.688,0.958    C534.651,67.623,534.604,67.794,534.679,67.927z M531.564,70.829c-0.1,0-0.191,0.053-0.242,0.137l-1.007,1.663    c-0.079,0.132-0.037,0.306,0.095,0.385c0.045,0.025,0.093,0.039,0.145,0.039c0.102,0,0.191-0.051,0.239-0.134l1.008-1.663    c0.081-0.132,0.038-0.303-0.094-0.385C531.664,70.844,531.614,70.829,531.564,70.829z M534.022,67.171    c0.1,0,0.191-0.052,0.241-0.138l0.979-1.682c0.036-0.064,0.048-0.138,0.027-0.212c-0.019-0.072-0.066-0.132-0.131-0.169    c-0.043-0.025-0.092-0.039-0.14-0.039c-0.101,0-0.193,0.056-0.241,0.141l-0.977,1.681c-0.039,0.065-0.051,0.14-0.031,0.211    c0.021,0.074,0.066,0.135,0.13,0.172C533.924,67.161,533.972,67.171,534.022,67.171z M530.651,69.085    c0.002-0.072-0.024-0.148-0.074-0.206c-0.05-0.063-0.123-0.1-0.203-0.103l-1.948,0.04c-0.226,0-0.276,0.117-0.278,0.215    c-0.003,0.081,0.03,0.219,0.27,0.227l1.954,0.12C530.519,69.378,530.646,69.244,530.651,69.085z M535.065,70    c-0.045-0.025-0.095-0.038-0.146-0.038c-0.099,0-0.19,0.053-0.241,0.136c-0.037,0.064-0.05,0.138-0.029,0.212    c0.019,0.073,0.063,0.132,0.13,0.171l1.67,0.993c0.042,0.026,0.093,0.04,0.143,0.04c0.1,0,0.191-0.053,0.242-0.137    c0.037-0.065,0.049-0.139,0.03-0.212c-0.019-0.075-0.065-0.135-0.13-0.171L535.065,70z M530.979,65.02    c-0.051-0.092-0.146-0.147-0.248-0.147c-0.046,0-0.092,0.009-0.133,0.031c-0.064,0.037-0.115,0.096-0.137,0.166    c-0.022,0.072-0.015,0.148,0.021,0.215l0.915,1.714c0.046,0.092,0.144,0.149,0.246,0.149c0.051,0,0.094-0.011,0.133-0.033    c0.066-0.037,0.114-0.094,0.137-0.166s0.014-0.148-0.022-0.212L530.979,65.02z M537.199,68.793l-1.946,0.024    c-0.161,0-0.278,0.106-0.28,0.251c-0.002,0.069,0.022,0.132,0.068,0.178c0.051,0.051,0.125,0.08,0.206,0.08l1.949,0.052    c0.151,0,0.28-0.132,0.28-0.288C537.479,68.931,537.353,68.795,537.199,68.793z M534.26,70.999    c-0.048-0.089-0.141-0.144-0.244-0.144c-0.047,0-0.093,0.013-0.136,0.035c-0.135,0.076-0.185,0.246-0.109,0.382l0.947,1.697    c0.049,0.092,0.144,0.145,0.244,0.145c0.05,0,0.096-0.013,0.138-0.035c0.133-0.076,0.185-0.247,0.108-0.382L534.26,70.999z     M532.792,64.347c-0.156,0-0.279,0.126-0.279,0.28v1.943c0,0.155,0.123,0.281,0.279,0.281c0.154,0,0.28-0.125,0.28-0.281v-1.943    C533.072,64.473,532.946,64.347,532.792,64.347z M532.778,71.171c-0.159,0.022-0.271,0.136-0.271,0.272l-0.037,1.938    c-0.002,0.072,0.025,0.14,0.075,0.191c0.053,0.054,0.124,0.081,0.201,0.081h0.004c0.156,0,0.278-0.114,0.28-0.264l0.035-1.934    C533.067,71.301,532.943,71.171,532.778,71.171z"/>
		<path fill="#414042" d="M307.254,42.971c-0.077-0.048-0.131-0.126-0.154-0.216c-0.021-0.086-0.004-0.181,0.044-0.257    c0.063-0.101,0.171-0.163,0.293-0.163c0.061,0,0.122,0.017,0.176,0.05l2.027,1.251c0.077,0.046,0.133,0.124,0.153,0.214    c0.022,0.088,0.007,0.181-0.042,0.26c-0.061,0.101-0.172,0.163-0.292,0.163c-0.061,0-0.124-0.02-0.181-0.05L307.254,42.971z     M309.729,47.028c0.027-0.087,0.016-0.181-0.026-0.257c-0.062-0.109-0.177-0.18-0.301-0.18c-0.059,0-0.115,0.013-0.167,0.042    l-2.086,1.14c-0.082,0.046-0.141,0.118-0.166,0.205c-0.024,0.086-0.019,0.18,0.026,0.26c0.059,0.112,0.175,0.18,0.301,0.18    c0.059,0,0.112-0.014,0.165-0.042l2.089-1.14C309.646,47.19,309.705,47.12,309.729,47.028z M314.298,44.154    c0.063,0.108,0.176,0.17,0.3,0.17c0.057,0,0.116-0.012,0.17-0.042l2.066-1.179c0.08-0.042,0.137-0.118,0.162-0.205    c0.026-0.089,0.012-0.182-0.033-0.263c-0.061-0.106-0.175-0.174-0.298-0.174c-0.058,0-0.117,0.018-0.168,0.047l-2.067,1.173    C314.265,43.781,314.206,43.992,314.298,44.154z M310.485,47.706c-0.121,0-0.235,0.066-0.296,0.167l-1.233,2.035    c-0.097,0.162-0.045,0.374,0.117,0.473c0.055,0.031,0.113,0.048,0.177,0.048c0.124,0,0.232-0.066,0.293-0.167l1.233-2.035    c0.097-0.163,0.045-0.373-0.115-0.473C310.608,47.723,310.546,47.706,310.485,47.706z M313.494,43.229    c0.123,0,0.236-0.064,0.296-0.167L314.987,41c0.045-0.081,0.058-0.17,0.034-0.261c-0.023-0.086-0.081-0.163-0.161-0.207    c-0.052-0.032-0.111-0.048-0.172-0.048c-0.121,0-0.235,0.068-0.295,0.171l-1.195,2.058c-0.047,0.078-0.061,0.17-0.036,0.26    c0.025,0.09,0.08,0.165,0.158,0.21C313.374,43.215,313.434,43.229,313.494,43.229z M309.368,45.572    c0.002-0.089-0.03-0.182-0.091-0.253c-0.061-0.077-0.151-0.122-0.248-0.125l-2.384,0.05c-0.276,0-0.34,0.142-0.342,0.261    c-0.001,0.1,0.039,0.271,0.33,0.279l2.392,0.146C309.205,45.93,309.361,45.766,309.368,45.572z M314.771,46.692    c-0.055-0.031-0.116-0.048-0.176-0.048c-0.123,0-0.234,0.066-0.296,0.168c-0.045,0.079-0.061,0.169-0.037,0.261    c0.024,0.086,0.078,0.162,0.158,0.208l2.044,1.214c0.053,0.032,0.115,0.049,0.176,0.049c0.122,0,0.232-0.064,0.295-0.167    c0.046-0.079,0.061-0.17,0.036-0.261c-0.022-0.09-0.079-0.164-0.157-0.209L314.771,46.692z M309.767,40.595    c-0.061-0.112-0.175-0.18-0.302-0.18c-0.056,0-0.112,0.011-0.163,0.039c-0.08,0.045-0.14,0.118-0.167,0.203    c-0.027,0.089-0.019,0.182,0.026,0.262l1.119,2.099c0.059,0.114,0.176,0.184,0.302,0.184c0.06,0,0.115-0.015,0.164-0.041    c0.081-0.047,0.139-0.117,0.167-0.206c0.026-0.086,0.016-0.18-0.028-0.258L309.767,40.595z M317.384,45.214l-2.383,0.03    c-0.196,0-0.342,0.129-0.343,0.308c-0.003,0.084,0.027,0.161,0.083,0.216c0.064,0.064,0.154,0.1,0.253,0.1l2.385,0.062    c0.186,0,0.343-0.162,0.343-0.353C317.727,45.382,317.57,45.219,317.384,45.214z M313.786,47.914    c-0.06-0.109-0.174-0.175-0.298-0.175c-0.059,0-0.115,0.014-0.168,0.042c-0.164,0.092-0.225,0.3-0.132,0.467l1.159,2.079    c0.061,0.111,0.176,0.176,0.298,0.176c0.061,0,0.117-0.017,0.169-0.042c0.163-0.092,0.226-0.303,0.133-0.468L313.786,47.914z     M311.988,39.771c-0.19,0-0.342,0.154-0.342,0.343v2.377c0,0.19,0.151,0.344,0.342,0.344c0.189,0,0.343-0.153,0.343-0.344v-2.377    C312.331,39.926,312.177,39.771,311.988,39.771z M311.972,48.125c-0.194,0.028-0.333,0.166-0.333,0.333l-0.044,2.371    c-0.002,0.089,0.031,0.174,0.092,0.236c0.063,0.064,0.15,0.1,0.246,0.1h0.004c0.192,0,0.34-0.141,0.343-0.323l0.044-2.367    C312.327,48.285,312.172,48.125,311.972,48.125z"/>
		<path fill="#414042" d="M583.513,206.193c-0.124-0.078-0.214-0.205-0.252-0.353c-0.034-0.146-0.009-0.297,0.071-0.423    c0.104-0.168,0.281-0.268,0.482-0.268c0.099,0,0.199,0.03,0.289,0.082l3.325,2.056c0.127,0.077,0.22,0.202,0.253,0.352    c0.037,0.145,0.011,0.295-0.07,0.427c-0.102,0.165-0.283,0.266-0.479,0.266c-0.102,0-0.204-0.03-0.297-0.081L583.513,206.193z     M587.578,212.856c0.044-0.144,0.026-0.297-0.045-0.426c-0.102-0.179-0.289-0.294-0.494-0.294c-0.096,0-0.188,0.021-0.273,0.067    l-3.426,1.872c-0.135,0.074-0.23,0.193-0.271,0.338c-0.04,0.14-0.029,0.296,0.044,0.426c0.097,0.183,0.287,0.293,0.493,0.293    c0.098,0,0.187-0.021,0.271-0.065l3.431-1.874C587.439,213.123,587.537,213.005,587.578,212.856z M595.079,208.137    c0.103,0.176,0.29,0.282,0.492,0.282c0.095,0,0.19-0.024,0.278-0.072l3.394-1.936c0.13-0.069,0.228-0.192,0.264-0.338    c0.045-0.144,0.022-0.295-0.053-0.43c-0.1-0.173-0.288-0.28-0.489-0.28c-0.096,0-0.191,0.026-0.279,0.074l-3.391,1.928    C595.022,207.523,594.928,207.869,595.079,208.137z M588.82,213.969c-0.201,0-0.386,0.107-0.485,0.275l-2.026,3.339    c-0.159,0.268-0.074,0.616,0.193,0.775c0.089,0.052,0.186,0.08,0.291,0.08c0.202,0,0.381-0.105,0.48-0.271l2.025-3.342    c0.16-0.267,0.072-0.611-0.189-0.775C589.02,213.999,588.919,213.969,588.82,213.969z M593.759,206.62    c0.199,0,0.386-0.107,0.486-0.278l1.965-3.383c0.074-0.129,0.097-0.277,0.055-0.427c-0.036-0.144-0.132-0.266-0.263-0.341    c-0.086-0.052-0.182-0.077-0.281-0.077c-0.202,0-0.386,0.11-0.485,0.282l-1.964,3.379c-0.077,0.128-0.1,0.279-0.058,0.426    c0.04,0.146,0.13,0.27,0.26,0.345C593.563,206.597,593.658,206.62,593.759,206.62z M586.983,210.466    c0.004-0.146-0.048-0.298-0.147-0.415c-0.101-0.128-0.248-0.202-0.407-0.206l-3.916,0.081c-0.454,0-0.558,0.234-0.56,0.433    c-0.004,0.162,0.062,0.44,0.54,0.455l3.928,0.24C586.716,211.054,586.973,210.784,586.983,210.466z M595.854,212.305    c-0.089-0.053-0.188-0.079-0.289-0.079c-0.2,0-0.386,0.108-0.485,0.274c-0.074,0.13-0.101,0.278-0.06,0.427    c0.036,0.146,0.126,0.267,0.26,0.344l3.355,1.996c0.086,0.051,0.189,0.079,0.29,0.079c0.2,0,0.382-0.104,0.484-0.275    c0.075-0.131,0.098-0.278,0.062-0.426c-0.039-0.149-0.131-0.271-0.261-0.346L595.854,212.305z M587.64,202.297    c-0.099-0.187-0.288-0.298-0.496-0.298c-0.093,0-0.186,0.02-0.267,0.063c-0.131,0.074-0.231,0.193-0.275,0.334    c-0.044,0.144-0.029,0.297,0.044,0.429l1.837,3.446c0.097,0.185,0.29,0.3,0.496,0.3c0.101,0,0.19-0.021,0.268-0.066    c0.132-0.075,0.23-0.189,0.274-0.334c0.044-0.146,0.026-0.297-0.044-0.426L587.64,202.297z M600.144,209.878l-3.912,0.048    c-0.322,0-0.56,0.213-0.562,0.507c-0.004,0.136,0.044,0.262,0.136,0.355c0.104,0.104,0.253,0.162,0.415,0.162l3.916,0.104    c0.304,0,0.563-0.266,0.563-0.577C600.709,210.154,600.451,209.882,600.144,209.878z M594.237,214.311    c-0.095-0.18-0.286-0.29-0.489-0.29c-0.098,0-0.189,0.026-0.274,0.07c-0.271,0.153-0.372,0.494-0.22,0.768l1.902,3.412    c0.102,0.183,0.289,0.289,0.491,0.289c0.1,0,0.191-0.025,0.276-0.07c0.267-0.153,0.371-0.498,0.221-0.768L594.237,214.311z     M591.285,200.942c-0.312,0-0.56,0.253-0.56,0.564v3.904c0,0.312,0.248,0.563,0.56,0.563s0.564-0.251,0.564-0.563v-3.904    C591.85,201.195,591.597,200.942,591.285,200.942z M591.259,214.659c-0.318,0.045-0.544,0.27-0.544,0.544l-0.074,3.894    c-0.003,0.146,0.053,0.281,0.151,0.385c0.104,0.108,0.249,0.165,0.405,0.165h0.006c0.316,0,0.563-0.23,0.565-0.531l0.069-3.886    C591.842,214.917,591.59,214.659,591.259,214.659z"/>
		<path fill="#414042" d="M120.373,152.863c-0.166-0.101-0.28-0.261-0.326-0.453c-0.045-0.188-0.01-0.381,0.09-0.548    c0.133-0.214,0.362-0.342,0.62-0.342c0.133,0,0.262,0.035,0.378,0.103l4.289,2.654c0.162,0.102,0.28,0.26,0.326,0.451    c0.044,0.188,0.013,0.385-0.091,0.553c-0.133,0.216-0.365,0.346-0.618,0.346c-0.133,0-0.264-0.039-0.382-0.108L120.373,152.863z     M125.614,161.462c0.056-0.187,0.032-0.382-0.059-0.549c-0.127-0.232-0.37-0.38-0.634-0.38c-0.124,0-0.246,0.029-0.354,0.088    l-4.421,2.416c-0.172,0.094-0.295,0.247-0.351,0.433c-0.054,0.185-0.035,0.383,0.059,0.552c0.125,0.232,0.371,0.377,0.638,0.377    c0.121,0,0.239-0.025,0.348-0.086l4.425-2.414C125.438,161.804,125.562,161.65,125.614,161.462z M135.294,155.373    c0.133,0.226,0.373,0.363,0.633,0.363c0.124,0,0.248-0.028,0.358-0.093l4.379-2.495c0.169-0.091,0.291-0.249,0.341-0.436    c0.055-0.188,0.029-0.386-0.068-0.556c-0.129-0.223-0.371-0.365-0.629-0.365c-0.127,0-0.25,0.033-0.361,0.095l-4.379,2.492    C135.22,154.582,135.097,155.025,135.294,155.373z M127.214,162.898c-0.255,0-0.494,0.137-0.626,0.354l-2.612,4.31    c-0.203,0.343-0.094,0.79,0.249,1c0.116,0.066,0.242,0.1,0.375,0.1c0.262,0,0.49-0.133,0.619-0.351l2.617-4.31    c0.203-0.344,0.094-0.793-0.247-1.001C127.475,162.933,127.347,162.898,127.214,162.898z M133.591,153.416    c0.255,0,0.496-0.139,0.626-0.361l2.533-4.361c0.098-0.167,0.124-0.361,0.074-0.55c-0.05-0.188-0.172-0.345-0.337-0.44    c-0.113-0.065-0.241-0.101-0.366-0.101c-0.258,0-0.498,0.14-0.629,0.364l-2.532,4.354c-0.099,0.168-0.125,0.366-0.075,0.554    c0.053,0.188,0.169,0.347,0.337,0.445C133.337,153.385,133.46,153.416,133.591,153.416z M124.847,158.377    c0.005-0.189-0.063-0.385-0.188-0.536c-0.133-0.161-0.325-0.259-0.528-0.262l-5.05,0.103c-0.586,0-0.717,0.301-0.725,0.555    c-0.006,0.212,0.079,0.569,0.701,0.59l5.067,0.31C124.502,159.136,124.834,158.789,124.847,158.377z M136.291,160.75    c-0.111-0.066-0.24-0.101-0.373-0.101c-0.257,0-0.495,0.136-0.624,0.354c-0.098,0.167-0.129,0.36-0.08,0.549    c0.046,0.188,0.165,0.347,0.336,0.445l4.331,2.576c0.111,0.064,0.24,0.1,0.371,0.1c0.258,0,0.496-0.136,0.625-0.354    c0.099-0.167,0.127-0.362,0.079-0.55c-0.046-0.19-0.168-0.35-0.335-0.446L136.291,160.75z M125.694,147.835    c-0.129-0.238-0.374-0.383-0.642-0.383c-0.116,0-0.235,0.028-0.342,0.083c-0.17,0.094-0.297,0.247-0.353,0.432    c-0.059,0.187-0.039,0.382,0.056,0.554l2.369,4.443c0.124,0.239,0.371,0.387,0.642,0.387c0.125,0,0.24-0.024,0.343-0.084    c0.171-0.095,0.297-0.243,0.353-0.435c0.057-0.184,0.037-0.377-0.056-0.545L125.694,147.835z M141.826,157.621l-5.046,0.061    c-0.417,0-0.724,0.275-0.727,0.65c-0.001,0.18,0.059,0.338,0.177,0.459c0.133,0.137,0.327,0.213,0.539,0.213l5.051,0.132    c0.391,0,0.725-0.341,0.727-0.747C142.551,157.977,142.225,157.623,141.826,157.621z M134.208,163.338    c-0.125-0.232-0.369-0.371-0.634-0.371c-0.12,0-0.244,0.029-0.353,0.088c-0.351,0.198-0.479,0.639-0.281,0.991l2.454,4.401    c0.13,0.231,0.375,0.373,0.633,0.373c0.125,0,0.243-0.032,0.356-0.094c0.347-0.193,0.476-0.639,0.282-0.988L134.208,163.338z     M130.399,146.091c-0.4,0-0.725,0.326-0.725,0.726v5.039c0,0.401,0.325,0.729,0.725,0.729c0.402,0,0.726-0.327,0.726-0.729v-5.039    C131.125,146.417,130.801,146.091,130.399,146.091z M130.362,163.788c-0.408,0.055-0.699,0.347-0.703,0.702l-0.094,5.021    c-0.005,0.189,0.065,0.364,0.196,0.498c0.135,0.139,0.319,0.212,0.522,0.212h0.009c0.406,0,0.721-0.293,0.727-0.686l0.091-5.015    C131.117,164.124,130.792,163.788,130.362,163.788z"/>
		<path fill="#414042" d="M164.113,41.163c-0.078-0.048-0.133-0.124-0.155-0.216c-0.021-0.088-0.003-0.181,0.044-0.26    c0.063-0.101,0.172-0.163,0.295-0.163c0.063,0,0.124,0.017,0.179,0.05l2.041,1.263c0.076,0.047,0.133,0.122,0.155,0.213    c0.02,0.088,0.005,0.183-0.044,0.264c-0.063,0.103-0.173,0.163-0.294,0.163c-0.062,0-0.125-0.018-0.182-0.05L164.113,41.163z     M166.607,45.253c0.025-0.089,0.015-0.181-0.028-0.262c-0.061-0.111-0.177-0.181-0.303-0.181c-0.059,0-0.117,0.015-0.167,0.042    l-2.104,1.15c-0.082,0.043-0.14,0.118-0.166,0.206c-0.026,0.086-0.019,0.181,0.027,0.263c0.059,0.111,0.175,0.179,0.303,0.179    c0.057,0,0.114-0.013,0.167-0.04l2.105-1.151C166.522,45.415,166.582,45.343,166.607,45.253z M171.211,42.355    c0.064,0.107,0.179,0.175,0.302,0.175c0.059,0,0.116-0.016,0.17-0.045l2.083-1.186c0.081-0.044,0.139-0.12,0.163-0.209    c0.025-0.088,0.013-0.182-0.033-0.264c-0.062-0.104-0.175-0.173-0.299-0.173c-0.061,0-0.118,0.017-0.172,0.044l-2.083,1.186    C171.176,41.98,171.119,42.19,171.211,42.355z M167.369,45.937c-0.122,0-0.236,0.064-0.298,0.169l-1.244,2.05    c-0.096,0.163-0.044,0.375,0.12,0.476c0.055,0.031,0.115,0.046,0.177,0.046c0.125,0,0.234-0.063,0.295-0.166l1.246-2.05    c0.096-0.165,0.044-0.377-0.119-0.476C167.491,45.953,167.432,45.937,167.369,45.937z M170.401,41.426    c0.122,0,0.238-0.067,0.298-0.173l1.205-2.075c0.046-0.078,0.059-0.17,0.035-0.261c-0.024-0.088-0.082-0.162-0.161-0.209    c-0.054-0.031-0.115-0.046-0.173-0.046c-0.124,0-0.238,0.066-0.301,0.172l-1.203,2.071c-0.048,0.081-0.061,0.174-0.037,0.264    c0.026,0.09,0.081,0.165,0.161,0.211C170.281,41.409,170.34,41.426,170.401,41.426z M166.241,43.786    c0.002-0.09-0.028-0.185-0.09-0.257c-0.063-0.075-0.153-0.121-0.249-0.124l-2.404,0.049c-0.278,0-0.341,0.143-0.344,0.264    c-0.003,0.101,0.038,0.271,0.333,0.28l2.412,0.148C166.078,44.146,166.237,43.981,166.241,43.786z M171.687,44.916    c-0.054-0.035-0.115-0.05-0.179-0.05c-0.123,0-0.235,0.065-0.297,0.169c-0.045,0.079-0.061,0.169-0.037,0.26    c0.022,0.09,0.08,0.164,0.161,0.212l2.059,1.225c0.053,0.033,0.114,0.049,0.177,0.049c0.121,0,0.236-0.064,0.296-0.167    c0.048-0.08,0.062-0.174,0.039-0.262c-0.022-0.09-0.081-0.166-0.161-0.212L171.687,44.916z M166.644,38.771    c-0.061-0.114-0.177-0.182-0.304-0.182c-0.056,0-0.113,0.012-0.162,0.038c-0.082,0.046-0.143,0.119-0.168,0.207    c-0.028,0.089-0.019,0.182,0.025,0.265l1.127,2.113c0.06,0.114,0.177,0.185,0.306,0.185c0.059,0,0.115-0.014,0.163-0.042    c0.081-0.045,0.142-0.116,0.168-0.206c0.028-0.087,0.017-0.179-0.026-0.26L166.644,38.771z M174.318,43.427l-2.399,0.028    c-0.199,0-0.345,0.13-0.347,0.309c0,0.086,0.028,0.16,0.085,0.218c0.063,0.066,0.155,0.102,0.257,0.102l2.402,0.063    c0.186,0,0.345-0.163,0.345-0.355C174.665,43.596,174.508,43.427,174.318,43.427z M170.696,46.145    c-0.061-0.109-0.177-0.176-0.303-0.176c-0.057,0-0.116,0.013-0.168,0.043c-0.168,0.094-0.227,0.302-0.133,0.47l1.166,2.095    c0.063,0.11,0.18,0.176,0.301,0.176c0.062,0,0.117-0.014,0.17-0.044c0.166-0.092,0.227-0.304,0.135-0.47L170.696,46.145z     M168.882,37.941c-0.19,0-0.343,0.155-0.343,0.345v2.397c0,0.19,0.153,0.346,0.343,0.346c0.192,0,0.347-0.155,0.347-0.346v-2.397    C169.229,38.096,169.074,37.941,168.882,37.941z M168.866,46.36c-0.194,0.025-0.332,0.164-0.334,0.334l-0.044,2.389    c-0.003,0.089,0.03,0.171,0.093,0.237c0.064,0.064,0.151,0.099,0.249,0.099h0.003c0.194,0,0.343-0.138,0.346-0.327l0.044-2.384    C169.224,46.519,169.07,46.36,168.866,46.36z"/>
		<g>
			<path fill="#414042" d="M132.467,227.387c-1.808,0-3.274-1.467-3.274-3.271c0-1.81,1.466-3.277,3.274-3.277     c1.807,0,3.273,1.468,3.273,3.277C135.741,225.92,134.274,227.387,132.467,227.387z M132.467,222.134     c-1.092,0-1.983,0.889-1.983,1.981c0,1.092,0.892,1.979,1.983,1.979c1.093,0,1.982-0.888,1.982-1.979     C134.449,223.022,133.56,222.134,132.467,222.134z"/>
		</g>
		<g>
			<path fill="#414042" d="M176.28,88.938c-2.068,0-3.745-1.675-3.745-3.738c0-2.071,1.677-3.748,3.745-3.748     c2.064,0,3.741,1.677,3.741,3.748C180.021,87.264,178.345,88.938,176.28,88.938z M176.28,82.934     c-1.249,0-2.268,1.018-2.268,2.267c0,1.247,1.019,2.263,2.268,2.263c1.248,0,2.264-1.016,2.264-2.263     C178.544,83.951,177.528,82.934,176.28,82.934z"/>
		</g>
		<g>
			<path fill="#414042" d="M417.252,211.042c-2.545,0-4.61-2.066-4.61-4.605c0-2.548,2.065-4.614,4.61-4.614     c2.542,0,4.609,2.066,4.609,4.614C421.861,208.976,419.794,211.042,417.252,211.042z M417.252,203.646     c-1.537,0-2.792,1.251-2.792,2.79c0,1.537,1.255,2.786,2.792,2.786c1.539,0,2.79-1.249,2.79-2.786     C420.042,204.897,418.791,203.646,417.252,203.646z"/>
		</g>
		<g>
			<path fill="#414042" d="M610.449,135.962c-2.545,0-4.61-2.067-4.61-4.606c0-2.548,2.065-4.615,4.61-4.615     c2.543,0,4.609,2.066,4.609,4.615C615.059,133.895,612.992,135.962,610.449,135.962z M610.449,128.566     c-1.537,0-2.791,1.251-2.791,2.79c0,1.538,1.254,2.787,2.791,2.787c1.539,0,2.79-1.249,2.79-2.787     C613.239,129.817,611.988,128.566,610.449,128.566z"/>
		</g>
		<g>
			<path fill="#414042" d="M525.787,120.165c-1.188,0-2.153-0.965-2.153-2.151c0-1.191,0.965-2.155,2.153-2.155     c1.188,0,2.153,0.964,2.153,2.155C527.94,119.2,526.975,120.165,525.787,120.165z M525.787,116.711     c-0.717,0-1.305,0.585-1.305,1.303c0,0.72,0.588,1.302,1.305,1.302c0.719,0,1.305-0.583,1.305-1.302     C527.092,117.297,526.506,116.711,525.787,116.711z"/>
		</g>
		<g>
			<path fill="#414042" d="M172.29,238.635c-1.188,0-2.153-0.965-2.153-2.151c0-1.189,0.965-2.155,2.153-2.155     c1.188,0,2.153,0.966,2.153,2.155C174.443,237.67,173.478,238.635,172.29,238.635z M172.29,235.182     c-0.717,0-1.305,0.584-1.305,1.302c0,0.72,0.587,1.303,1.305,1.303c0.718,0,1.305-0.583,1.305-1.303     C173.594,235.766,173.007,235.182,172.29,235.182z"/>
		</g>
	</g>
	<g>
		<g>
		</g>
		<g>
			<g id="XMLID_272_">
				<g>
					<polygon fill="#F4F5F5" points="433.193,165.797 381.93,223.981 400.639,223.981 439.53,179.841 473.969,179.841        493.106,139.143 500.972,165.008 514.394,160.941 499.486,111.903 450.453,126.814 454.52,140.279 480.82,132.254        465.052,165.797      "/>
				</g>
				<g opacity="0.5">
					<g>
						<g>
							<polyline fill="none" stroke="#414A45" stroke-width="1.9964" stroke-miterlimit="10" points="429.895,169.541          433.193,165.797 438.186,165.797        "/>
							
								<line fill="none" stroke="#414A45" stroke-width="1.9964" stroke-miterlimit="10" stroke-dasharray="7.2911,7.2911" x1="445.477" y1="165.797" x2="456.414" y2="165.797"/>
							<polyline fill="none" stroke="#414A45" stroke-width="1.9964" stroke-miterlimit="10" points="460.061,165.797          465.052,165.797 467.172,161.279        "/>
							
								<line fill="none" stroke="#414A45" stroke-width="1.9964" stroke-miterlimit="10" stroke-dasharray="9.0274,9.0274" x1="471.014" y1="153.11" x2="476.776" y2="140.856"/>
							<polyline fill="none" stroke="#414A45" stroke-width="1.9964" stroke-miterlimit="10" points="478.698,136.771          480.82,132.254 476.047,133.71        "/>
							
								<line fill="none" stroke="#414A45" stroke-width="1.9964" stroke-miterlimit="10" stroke-dasharray="5.8392,5.8392" x1="470.464" y1="135.415" x2="462.083" y2="137.971"/>
							<polyline fill="none" stroke="#414A45" stroke-width="1.9964" stroke-miterlimit="10" points="459.291,138.823          454.52,140.279 453.076,135.5        "/>
							<polyline fill="none" stroke="#414A45" stroke-width="1.9964" stroke-miterlimit="10" points="451.896,131.593          450.453,126.814 455.225,125.362        "/>
							
								<line fill="none" stroke="#414A45" stroke-width="1.9964" stroke-miterlimit="10" stroke-dasharray="8.2541,8.2541" x1="463.125" y1="122.962" x2="490.763" y2="114.557"/>
							<polyline fill="none" stroke="#414A45" stroke-width="1.9964" stroke-miterlimit="10" points="494.714,113.356          499.486,111.903 500.941,116.678        "/>
							
								<line fill="none" stroke="#414A45" stroke-width="1.9964" stroke-miterlimit="10" stroke-dasharray="8.2543,8.2543" x1="503.339" y1="124.577" x2="511.742" y2="152.217"/>
							<polyline fill="none" stroke="#414A45" stroke-width="1.9964" stroke-miterlimit="10" points="512.943,156.167          514.394,160.941 509.617,162.388        "/>
							<polyline fill="none" stroke="#414A45" stroke-width="1.9964" stroke-miterlimit="10" points="505.749,163.562          500.972,165.008 499.521,160.234        "/>
							
								<line fill="none" stroke="#414A45" stroke-width="1.9964" stroke-miterlimit="10" stroke-dasharray="5.6846,5.6846" x1="497.868" y1="154.795" x2="495.384" y2="146.637"/>
							<polyline fill="none" stroke="#414A45" stroke-width="1.9964" stroke-miterlimit="10" points="494.558,143.917          493.106,139.143 490.982,143.659        "/>
							
								<line fill="none" stroke="#414A45" stroke-width="1.9964" stroke-miterlimit="10" stroke-dasharray="11.6637,11.6637" x1="486.018" y1="154.215" x2="478.574" y2="170.047"/>
							<polyline fill="none" stroke="#414A45" stroke-width="1.9964" stroke-miterlimit="10" points="476.094,175.323          473.969,179.841 468.979,179.841        "/>
							
								<line fill="none" stroke="#414A45" stroke-width="1.9964" stroke-miterlimit="10" stroke-dasharray="8.1522,8.1522" x1="460.828" y1="179.841" x2="448.6" y2="179.841"/>
							<polyline fill="none" stroke="#414A45" stroke-width="1.9964" stroke-miterlimit="10" points="444.521,179.841          439.53,179.841 436.231,183.586        "/>
							
								<line fill="none" stroke="#414A45" stroke-width="1.9964" stroke-miterlimit="10" stroke-dasharray="9.7697,9.7697" x1="429.774" y1="190.916" x2="407.165" y2="216.571"/>
							<polyline fill="none" stroke="#414A45" stroke-width="1.9964" stroke-miterlimit="10" points="403.938,220.236          400.639,223.981 395.647,223.981        "/>
							<polyline fill="none" stroke="#414A45" stroke-width="1.9964" stroke-miterlimit="10" points="386.921,223.981          381.93,223.981 385.229,220.236        "/>
							
								<line fill="none" stroke="#414A45" stroke-width="1.9964" stroke-miterlimit="10" stroke-dasharray="9.6523,9.6523" x1="391.608" y1="212.995" x2="426.705" y2="173.162"/>
						</g>
					</g>
				</g>
			</g>
			<g>
				<g>
					<g>
						<defs>
							<rect id="SVGID_1_" x="277.986" y="74.926" width="16.907" height="30.639"/>
						</defs>
						<clipPath id="SVGID_2_">
							<use xlink:href="#SVGID_1_"/>
						</clipPath>
						<g clip-path="url(#SVGID_2_)">
							
								<line fill="none" stroke="#414A45" stroke-width="1.9964" stroke-miterlimit="10" x1="240.734" y1="48.522" x2="324.685" y2="-21.687"/>
							
								<line fill="none" stroke="#414A45" stroke-width="1.9964" stroke-miterlimit="10" x1="240.734" y1="54.397" x2="324.685" y2="-15.816"/>
							
								<line fill="none" stroke="#414A45" stroke-width="1.9964" stroke-miterlimit="10" x1="240.734" y1="60.267" x2="324.685" y2="-9.942"/>
							
								<line fill="none" stroke="#414A45" stroke-width="1.9964" stroke-miterlimit="10" x1="240.734" y1="66.137" x2="324.685" y2="-4.07"/>
							
								<line fill="none" stroke="#414A45" stroke-width="1.9964" stroke-miterlimit="10" x1="240.734" y1="72.014" x2="324.685" y2="1.801"/>
							
								<line fill="none" stroke="#414A45" stroke-width="1.9964" stroke-miterlimit="10" x1="240.734" y1="77.884" x2="324.685" y2="7.675"/>
							
								<line fill="none" stroke="#414A45" stroke-width="1.9964" stroke-miterlimit="10" x1="240.734" y1="83.754" x2="324.685" y2="13.546"/>
							
								<line fill="none" stroke="#414A45" stroke-width="1.9964" stroke-miterlimit="10" x1="240.734" y1="89.627" x2="324.685" y2="19.416"/>
							
								<line fill="none" stroke="#414A45" stroke-width="1.9964" stroke-miterlimit="10" x1="240.734" y1="95.498" x2="324.685" y2="25.288"/>
							
								<line fill="none" stroke="#414A45" stroke-width="1.9964" stroke-miterlimit="10" x1="240.734" y1="101.372" x2="324.685" y2="31.16"/>
							
								<line fill="none" stroke="#414A45" stroke-width="1.9964" stroke-miterlimit="10" x1="240.734" y1="107.244" x2="324.685" y2="37.031"/>
							
								<line fill="none" stroke="#414A45" stroke-width="1.9964" stroke-miterlimit="10" x1="240.734" y1="113.114" x2="324.685" y2="42.905"/>
							
								<line fill="none" stroke="#414A45" stroke-width="1.9964" stroke-miterlimit="10" x1="240.734" y1="118.984" x2="324.685" y2="48.775"/>
							
								<line fill="none" stroke="#414A45" stroke-width="1.9964" stroke-miterlimit="10" x1="240.734" y1="124.859" x2="324.685" y2="54.646"/>
							
								<line fill="none" stroke="#414A45" stroke-width="1.9964" stroke-miterlimit="10" x1="240.734" y1="130.729" x2="324.685" y2="60.521"/>
							
								<line fill="none" stroke="#414A45" stroke-width="1.9964" stroke-miterlimit="10" x1="240.734" y1="136.602" x2="324.685" y2="66.393"/>
							
								<line fill="none" stroke="#414A45" stroke-width="1.9964" stroke-miterlimit="10" x1="240.734" y1="142.472" x2="324.685" y2="72.264"/>
							
								<line fill="none" stroke="#414A45" stroke-width="1.9964" stroke-miterlimit="10" x1="240.734" y1="148.345" x2="324.685" y2="78.136"/>
							
								<line fill="none" stroke="#414A45" stroke-width="1.9964" stroke-miterlimit="10" x1="240.734" y1="154.218" x2="324.685" y2="84.006"/>
							
								<line fill="none" stroke="#414A45" stroke-width="1.9964" stroke-miterlimit="10" x1="240.734" y1="160.089" x2="324.685" y2="89.88"/>
							
								<line fill="none" stroke="#414A45" stroke-width="1.9964" stroke-miterlimit="10" x1="240.734" y1="165.959" x2="324.685" y2="95.752"/>
							
								<line fill="none" stroke="#414A45" stroke-width="1.9964" stroke-miterlimit="10" x1="240.734" y1="171.835" x2="324.685" y2="101.623"/>
							
								<line fill="none" stroke="#414A45" stroke-width="1.9964" stroke-miterlimit="10" x1="240.734" y1="177.704" x2="324.685" y2="107.493"/>
							
								<line fill="none" stroke="#414A45" stroke-width="1.9964" stroke-miterlimit="10" x1="240.734" y1="183.574" x2="324.685" y2="113.368"/>
							
								<line fill="none" stroke="#414A45" stroke-width="1.9964" stroke-miterlimit="10" x1="240.734" y1="189.451" x2="324.685" y2="119.238"/>
						</g>
					</g>
					<g>
						<defs>
							<rect id="SVGID_3_" x="301.939" y="64.365" width="16.9" height="41.201"/>
						</defs>
						<clipPath id="SVGID_4_">
							<use xlink:href="#SVGID_3_"/>
						</clipPath>
						<g clip-path="url(#SVGID_4_)">
							
								<line fill="none" stroke="#414A45" stroke-width="1.9964" stroke-miterlimit="10" x1="278.047" y1="48.522" x2="362" y2="-21.687"/>
							
								<line fill="none" stroke="#414A45" stroke-width="1.9964" stroke-miterlimit="10" x1="278.047" y1="54.397" x2="362" y2="-15.816"/>
							
								<line fill="none" stroke="#414A45" stroke-width="1.9964" stroke-miterlimit="10" x1="278.047" y1="60.267" x2="362" y2="-9.942"/>
							
								<line fill="none" stroke="#414A45" stroke-width="1.9964" stroke-miterlimit="10" x1="278.047" y1="66.137" x2="362" y2="-4.07"/>
							
								<line fill="none" stroke="#414A45" stroke-width="1.9964" stroke-miterlimit="10" x1="278.047" y1="72.014" x2="362" y2="1.801"/>
							
								<line fill="none" stroke="#414A45" stroke-width="1.9964" stroke-miterlimit="10" x1="278.047" y1="77.884" x2="362" y2="7.675"/>
							
								<line fill="none" stroke="#414A45" stroke-width="1.9964" stroke-miterlimit="10" x1="278.047" y1="83.754" x2="362" y2="13.546"/>
							
								<line fill="none" stroke="#414A45" stroke-width="1.9964" stroke-miterlimit="10" x1="278.047" y1="89.627" x2="362" y2="19.416"/>
							
								<line fill="none" stroke="#414A45" stroke-width="1.9964" stroke-miterlimit="10" x1="278.047" y1="95.498" x2="362" y2="25.288"/>
							
								<line fill="none" stroke="#414A45" stroke-width="1.9964" stroke-miterlimit="10" x1="278.047" y1="101.372" x2="362" y2="31.16"/>
							
								<line fill="none" stroke="#414A45" stroke-width="1.9964" stroke-miterlimit="10" x1="278.047" y1="107.244" x2="362" y2="37.031"/>
							
								<line fill="none" stroke="#414A45" stroke-width="1.9964" stroke-miterlimit="10" x1="278.047" y1="113.114" x2="362" y2="42.905"/>
							
								<line fill="none" stroke="#414A45" stroke-width="1.9964" stroke-miterlimit="10" x1="278.047" y1="118.984" x2="362" y2="48.775"/>
							
								<line fill="none" stroke="#414A45" stroke-width="1.9964" stroke-miterlimit="10" x1="278.047" y1="124.859" x2="362" y2="54.646"/>
							
								<line fill="none" stroke="#414A45" stroke-width="1.9964" stroke-miterlimit="10" x1="278.047" y1="130.729" x2="362" y2="60.521"/>
							
								<line fill="none" stroke="#414A45" stroke-width="1.9964" stroke-miterlimit="10" x1="278.047" y1="136.602" x2="362" y2="66.393"/>
							
								<line fill="none" stroke="#414A45" stroke-width="1.9964" stroke-miterlimit="10" x1="278.047" y1="142.472" x2="362" y2="72.264"/>
							
								<line fill="none" stroke="#414A45" stroke-width="1.9964" stroke-miterlimit="10" x1="278.047" y1="148.345" x2="362" y2="78.136"/>
							
								<line fill="none" stroke="#414A45" stroke-width="1.9964" stroke-miterlimit="10" x1="278.047" y1="154.218" x2="362" y2="84.006"/>
							
								<line fill="none" stroke="#414A45" stroke-width="1.9964" stroke-miterlimit="10" x1="278.047" y1="160.089" x2="362" y2="89.88"/>
							
								<line fill="none" stroke="#414A45" stroke-width="1.9964" stroke-miterlimit="10" x1="278.047" y1="165.959" x2="362" y2="95.752"/>
							
								<line fill="none" stroke="#414A45" stroke-width="1.9964" stroke-miterlimit="10" x1="278.047" y1="171.835" x2="362" y2="101.623"/>
							
								<line fill="none" stroke="#414A45" stroke-width="1.9964" stroke-miterlimit="10" x1="278.047" y1="177.704" x2="362" y2="107.493"/>
							
								<line fill="none" stroke="#414A45" stroke-width="1.9964" stroke-miterlimit="10" x1="278.047" y1="183.574" x2="362" y2="113.368"/>
							
								<line fill="none" stroke="#414A45" stroke-width="1.9964" stroke-miterlimit="10" x1="278.047" y1="189.451" x2="362" y2="119.238"/>
						</g>
					</g>
					<g>
						<defs>
							<rect id="SVGID_5_" x="325.877" y="70.937" width="16.907" height="34.628"/>
						</defs>
						<clipPath id="SVGID_6_">
							<use xlink:href="#SVGID_5_"/>
						</clipPath>
						<g clip-path="url(#SVGID_6_)">
							
								<line fill="none" stroke="#414A45" stroke-width="1.9964" stroke-miterlimit="10" x1="302.383" y1="48.522" x2="386.336" y2="-21.687"/>
							
								<line fill="none" stroke="#414A45" stroke-width="1.9964" stroke-miterlimit="10" x1="302.383" y1="54.397" x2="386.336" y2="-15.816"/>
							
								<line fill="none" stroke="#414A45" stroke-width="1.9964" stroke-miterlimit="10" x1="302.383" y1="60.267" x2="386.336" y2="-9.942"/>
							
								<line fill="none" stroke="#414A45" stroke-width="1.9964" stroke-miterlimit="10" x1="302.383" y1="66.137" x2="386.336" y2="-4.07"/>
							
								<line fill="none" stroke="#414A45" stroke-width="1.9964" stroke-miterlimit="10" x1="302.383" y1="72.014" x2="386.336" y2="1.801"/>
							
								<line fill="none" stroke="#414A45" stroke-width="1.9964" stroke-miterlimit="10" x1="302.383" y1="77.884" x2="386.336" y2="7.675"/>
							
								<line fill="none" stroke="#414A45" stroke-width="1.9964" stroke-miterlimit="10" x1="302.383" y1="83.754" x2="386.336" y2="13.546"/>
							
								<line fill="none" stroke="#414A45" stroke-width="1.9964" stroke-miterlimit="10" x1="302.383" y1="89.627" x2="386.336" y2="19.416"/>
							
								<line fill="none" stroke="#414A45" stroke-width="1.9964" stroke-miterlimit="10" x1="302.383" y1="95.498" x2="386.336" y2="25.288"/>
							
								<line fill="none" stroke="#414A45" stroke-width="1.9964" stroke-miterlimit="10" x1="302.383" y1="101.372" x2="386.336" y2="31.16"/>
							
								<line fill="none" stroke="#414A45" stroke-width="1.9964" stroke-miterlimit="10" x1="302.383" y1="107.244" x2="386.336" y2="37.031"/>
							
								<line fill="none" stroke="#414A45" stroke-width="1.9964" stroke-miterlimit="10" x1="302.383" y1="113.114" x2="386.336" y2="42.905"/>
							
								<line fill="none" stroke="#414A45" stroke-width="1.9964" stroke-miterlimit="10" x1="302.383" y1="118.984" x2="386.336" y2="48.775"/>
							
								<line fill="none" stroke="#414A45" stroke-width="1.9964" stroke-miterlimit="10" x1="302.383" y1="124.859" x2="386.336" y2="54.646"/>
							
								<line fill="none" stroke="#414A45" stroke-width="1.9964" stroke-miterlimit="10" x1="302.383" y1="130.729" x2="386.336" y2="60.521"/>
							
								<line fill="none" stroke="#414A45" stroke-width="1.9964" stroke-miterlimit="10" x1="302.383" y1="136.602" x2="386.336" y2="66.393"/>
							
								<line fill="none" stroke="#414A45" stroke-width="1.9964" stroke-miterlimit="10" x1="302.383" y1="142.472" x2="386.336" y2="72.264"/>
							
								<line fill="none" stroke="#414A45" stroke-width="1.9964" stroke-miterlimit="10" x1="302.383" y1="148.345" x2="386.336" y2="78.136"/>
							
								<line fill="none" stroke="#414A45" stroke-width="1.9964" stroke-miterlimit="10" x1="302.383" y1="154.218" x2="386.336" y2="84.006"/>
							
								<line fill="none" stroke="#414A45" stroke-width="1.9964" stroke-miterlimit="10" x1="302.383" y1="160.089" x2="386.336" y2="89.88"/>
							
								<line fill="none" stroke="#414A45" stroke-width="1.9964" stroke-miterlimit="10" x1="302.383" y1="165.959" x2="386.336" y2="95.752"/>
							
								<line fill="none" stroke="#414A45" stroke-width="1.9964" stroke-miterlimit="10" x1="302.383" y1="171.835" x2="386.336" y2="101.623"/>
							
								<line fill="none" stroke="#414A45" stroke-width="1.9964" stroke-miterlimit="10" x1="302.383" y1="177.704" x2="386.336" y2="107.493"/>
							
								<line fill="none" stroke="#414A45" stroke-width="1.9964" stroke-miterlimit="10" x1="302.383" y1="183.574" x2="386.336" y2="113.368"/>
							
								<line fill="none" stroke="#414A45" stroke-width="1.9964" stroke-miterlimit="10" x1="302.383" y1="189.451" x2="386.336" y2="119.238"/>
						</g>
					</g>
					<g>
						<defs>
							<rect id="SVGID_7_" x="349.831" y="53.094" width="16.899" height="52.471"/>
						</defs>
						<clipPath id="SVGID_8_">
							<use xlink:href="#SVGID_7_"/>
						</clipPath>
						<g clip-path="url(#SVGID_8_)">
							
								<line fill="none" stroke="#414A45" stroke-width="1.9964" stroke-miterlimit="10" x1="308.221" y1="48.522" x2="392.174" y2="-21.687"/>
							
								<line fill="none" stroke="#414A45" stroke-width="1.9964" stroke-miterlimit="10" x1="308.221" y1="54.397" x2="392.174" y2="-15.816"/>
							
								<line fill="none" stroke="#414A45" stroke-width="1.9964" stroke-miterlimit="10" x1="308.221" y1="60.267" x2="392.174" y2="-9.942"/>
							
								<line fill="none" stroke="#414A45" stroke-width="1.9964" stroke-miterlimit="10" x1="308.221" y1="66.137" x2="392.174" y2="-4.07"/>
							
								<line fill="none" stroke="#414A45" stroke-width="1.9964" stroke-miterlimit="10" x1="308.221" y1="72.014" x2="392.174" y2="1.801"/>
							
								<line fill="none" stroke="#414A45" stroke-width="1.9964" stroke-miterlimit="10" x1="308.221" y1="77.884" x2="392.174" y2="7.675"/>
							
								<line fill="none" stroke="#414A45" stroke-width="1.9964" stroke-miterlimit="10" x1="308.221" y1="83.754" x2="392.174" y2="13.546"/>
							
								<line fill="none" stroke="#414A45" stroke-width="1.9964" stroke-miterlimit="10" x1="308.221" y1="89.627" x2="392.174" y2="19.416"/>
							
								<line fill="none" stroke="#414A45" stroke-width="1.9964" stroke-miterlimit="10" x1="308.221" y1="95.498" x2="392.174" y2="25.288"/>
							
								<line fill="none" stroke="#414A45" stroke-width="1.9964" stroke-miterlimit="10" x1="308.221" y1="101.372" x2="392.174" y2="31.16"/>
							
								<line fill="none" stroke="#414A45" stroke-width="1.9964" stroke-miterlimit="10" x1="308.221" y1="107.244" x2="392.174" y2="37.031"/>
							
								<line fill="none" stroke="#414A45" stroke-width="1.9964" stroke-miterlimit="10" x1="308.221" y1="113.114" x2="392.174" y2="42.905"/>
							
								<line fill="none" stroke="#414A45" stroke-width="1.9964" stroke-miterlimit="10" x1="308.221" y1="118.984" x2="392.174" y2="48.775"/>
							
								<line fill="none" stroke="#414A45" stroke-width="1.9964" stroke-miterlimit="10" x1="308.221" y1="124.859" x2="392.174" y2="54.646"/>
							
								<line fill="none" stroke="#414A45" stroke-width="1.9964" stroke-miterlimit="10" x1="308.221" y1="130.729" x2="392.174" y2="60.521"/>
							
								<line fill="none" stroke="#414A45" stroke-width="1.9964" stroke-miterlimit="10" x1="308.221" y1="136.602" x2="392.174" y2="66.393"/>
							
								<line fill="none" stroke="#414A45" stroke-width="1.9964" stroke-miterlimit="10" x1="308.221" y1="142.472" x2="392.174" y2="72.264"/>
							
								<line fill="none" stroke="#414A45" stroke-width="1.9964" stroke-miterlimit="10" x1="308.221" y1="148.345" x2="392.174" y2="78.136"/>
							
								<line fill="none" stroke="#414A45" stroke-width="1.9964" stroke-miterlimit="10" x1="308.221" y1="154.218" x2="392.174" y2="84.006"/>
							
								<line fill="none" stroke="#414A45" stroke-width="1.9964" stroke-miterlimit="10" x1="308.221" y1="160.089" x2="392.174" y2="89.88"/>
							
								<line fill="none" stroke="#414A45" stroke-width="1.9964" stroke-miterlimit="10" x1="308.221" y1="165.959" x2="392.174" y2="95.752"/>
							
								<line fill="none" stroke="#414A45" stroke-width="1.9964" stroke-miterlimit="10" x1="308.221" y1="171.835" x2="392.174" y2="101.623"/>
							
								<line fill="none" stroke="#414A45" stroke-width="1.9964" stroke-miterlimit="10" x1="308.221" y1="177.704" x2="392.174" y2="107.493"/>
							
								<line fill="none" stroke="#414A45" stroke-width="1.9964" stroke-miterlimit="10" x1="308.221" y1="183.574" x2="392.174" y2="113.368"/>
							
								<line fill="none" stroke="#414A45" stroke-width="1.9964" stroke-miterlimit="10" x1="308.221" y1="189.451" x2="392.174" y2="119.238"/>
						</g>
					</g>
					<g>
						<defs>
							<polygon id="SVGID_9_" points="374.962,105.565 374.962,38.501 391.865,38.501 391.865,105.322        "/>
						</defs>
						<clipPath id="SVGID_10_">
							<use xlink:href="#SVGID_9_"/>
						</clipPath>
						<g clip-path="url(#SVGID_10_)">
							
								<line fill="none" stroke="#414A45" stroke-width="1.9964" stroke-miterlimit="10" x1="344.243" y1="48.522" x2="428.195" y2="-21.687"/>
							
								<line fill="none" stroke="#414A45" stroke-width="1.9964" stroke-miterlimit="10" x1="344.243" y1="54.397" x2="428.195" y2="-15.816"/>
							
								<line fill="none" stroke="#414A45" stroke-width="1.9964" stroke-miterlimit="10" x1="344.243" y1="60.267" x2="428.195" y2="-9.942"/>
							
								<line fill="none" stroke="#414A45" stroke-width="1.9964" stroke-miterlimit="10" x1="344.243" y1="66.137" x2="428.195" y2="-4.07"/>
							
								<line fill="none" stroke="#414A45" stroke-width="1.9964" stroke-miterlimit="10" x1="344.243" y1="72.014" x2="428.195" y2="1.801"/>
							
								<line fill="none" stroke="#414A45" stroke-width="1.9964" stroke-miterlimit="10" x1="344.243" y1="77.884" x2="428.195" y2="7.675"/>
							
								<line fill="none" stroke="#414A45" stroke-width="1.9964" stroke-miterlimit="10" x1="344.243" y1="83.754" x2="428.195" y2="13.546"/>
							
								<line fill="none" stroke="#414A45" stroke-width="1.9964" stroke-miterlimit="10" x1="344.243" y1="89.627" x2="428.195" y2="19.416"/>
							
								<line fill="none" stroke="#414A45" stroke-width="1.9964" stroke-miterlimit="10" x1="344.243" y1="95.498" x2="428.195" y2="25.288"/>
							
								<line fill="none" stroke="#414A45" stroke-width="1.9964" stroke-miterlimit="10" x1="344.243" y1="101.372" x2="428.195" y2="31.16"/>
							
								<line fill="none" stroke="#414A45" stroke-width="1.9964" stroke-miterlimit="10" x1="344.243" y1="107.244" x2="428.195" y2="37.031"/>
							
								<line fill="none" stroke="#414A45" stroke-width="1.9964" stroke-miterlimit="10" x1="344.243" y1="113.114" x2="428.195" y2="42.905"/>
							
								<line fill="none" stroke="#414A45" stroke-width="1.9964" stroke-miterlimit="10" x1="344.243" y1="118.984" x2="428.195" y2="48.775"/>
							
								<line fill="none" stroke="#414A45" stroke-width="1.9964" stroke-miterlimit="10" x1="344.243" y1="124.859" x2="428.195" y2="54.646"/>
							
								<line fill="none" stroke="#414A45" stroke-width="1.9964" stroke-miterlimit="10" x1="344.243" y1="130.729" x2="428.195" y2="60.521"/>
							
								<line fill="none" stroke="#414A45" stroke-width="1.9964" stroke-miterlimit="10" x1="344.243" y1="136.602" x2="428.195" y2="66.393"/>
							
								<line fill="none" stroke="#414A45" stroke-width="1.9964" stroke-miterlimit="10" x1="344.243" y1="142.472" x2="428.195" y2="72.264"/>
							
								<line fill="none" stroke="#414A45" stroke-width="1.9964" stroke-miterlimit="10" x1="344.243" y1="148.345" x2="428.195" y2="78.136"/>
							
								<line fill="none" stroke="#414A45" stroke-width="1.9964" stroke-miterlimit="10" x1="344.243" y1="154.218" x2="428.195" y2="84.006"/>
							
								<line fill="none" stroke="#414A45" stroke-width="1.9964" stroke-miterlimit="10" x1="344.243" y1="160.089" x2="428.195" y2="89.88"/>
							
								<line fill="none" stroke="#414A45" stroke-width="1.9964" stroke-miterlimit="10" x1="344.243" y1="165.959" x2="428.195" y2="95.752"/>
							
								<line fill="none" stroke="#414A45" stroke-width="1.9964" stroke-miterlimit="10" x1="344.243" y1="171.835" x2="428.195" y2="101.623"/>
							
								<line fill="none" stroke="#414A45" stroke-width="1.9964" stroke-miterlimit="10" x1="344.243" y1="177.704" x2="428.195" y2="107.493"/>
							
								<line fill="none" stroke="#414A45" stroke-width="1.9964" stroke-miterlimit="10" x1="344.243" y1="183.574" x2="428.195" y2="113.368"/>
							
								<line fill="none" stroke="#414A45" stroke-width="1.9964" stroke-miterlimit="10" x1="344.243" y1="189.451" x2="428.195" y2="119.238"/>
						</g>
					</g>
				</g>
				
					<line fill="none" stroke="#414A45" stroke-width="1.9964" stroke-miterlimit="10" x1="266.997" y1="109.007" x2="395.851" y2="109.007"/>
				<polyline fill="none" stroke="#414A45" stroke-width="1.9964" stroke-miterlimit="10" points="277.986,105.565 277.986,74.926       294.893,74.926 294.893,105.565     "/>
				<polyline fill="none" stroke="#414A45" stroke-width="1.9964" stroke-miterlimit="10" points="301.939,105.565 301.939,64.365       318.839,64.365 318.839,105.565     "/>
				<polyline fill="none" stroke="#414A45" stroke-width="1.9964" stroke-miterlimit="10" points="325.877,105.565 325.877,70.937       342.784,70.937 342.784,105.565     "/>
				<polyline fill="none" stroke="#414A45" stroke-width="1.9964" stroke-miterlimit="10" points="349.831,105.565 349.831,53.094       366.73,53.094 366.73,105.565     "/>
				<polyline fill="none" stroke="#414A45" stroke-width="1.9964" stroke-miterlimit="10" points="374.962,105.565 374.962,38.501       391.865,38.501 391.865,105.565     "/>
				<polyline fill="none" stroke="#414A45" stroke-width="1.9964" stroke-miterlimit="10" points="287.964,65.299 308.154,48.166       333.278,60.604 358.396,28.443     "/>
				<g>
					<circle fill="#FFCE00" cx="287.828" cy="65.21" r="4.227"/>
					<circle fill="none" stroke="#414A45" stroke-width="1.9964" stroke-miterlimit="10" cx="287.828" cy="65.21" r="4.227"/>
				</g>
				<g>
					<path fill="#FFCE00" d="M312.311,48.653c0-2.336-1.891-4.229-4.226-4.229c-2.336,0-4.227,1.893-4.227,4.229       c0,2.332,1.891,4.221,4.227,4.221C310.42,52.874,312.311,50.985,312.311,48.653z"/>
					<path fill="none" stroke="#414A45" stroke-width="1.9964" stroke-miterlimit="10" d="M312.311,48.653       c0-2.336-1.891-4.229-4.226-4.229c-2.336,0-4.227,1.893-4.227,4.229c0,2.332,1.891,4.221,4.227,4.221       C310.42,52.874,312.311,50.985,312.311,48.653z"/>
				</g>
				<g>
					<path fill="#FFCE00" d="M338.07,60.831c0-2.334-1.899-4.228-4.231-4.228s-4.227,1.894-4.227,4.228       c0,2.332,1.895,4.227,4.227,4.227S338.07,63.162,338.07,60.831z"/>
					<path fill="none" stroke="#414A45" stroke-width="1.9964" stroke-miterlimit="10" d="M338.07,60.831       c0-2.334-1.899-4.228-4.231-4.228s-4.227,1.894-4.227,4.228c0,2.332,1.895,4.227,4.227,4.227S338.07,63.162,338.07,60.831z"/>
				</g>
				<g>
					<path fill="#FFCE00" d="M362.141,29.335c0-2.333-1.896-4.227-4.223-4.227c-2.336,0-4.228,1.893-4.228,4.227       s1.892,4.227,4.228,4.227C360.245,33.563,362.141,31.669,362.141,29.335z"/>
					<path fill="none" stroke="#414A45" stroke-width="1.9964" stroke-miterlimit="10" d="M362.141,29.335       c0-2.333-1.896-4.227-4.223-4.227c-2.336,0-4.228,1.893-4.228,4.227s1.892,4.227,4.228,4.227       C360.245,33.563,362.141,31.669,362.141,29.335z"/>
				</g>
				
					<line fill="none" stroke="#414A45" stroke-width="1.9964" stroke-miterlimit="10" x1="271.48" y1="101.149" x2="267.251" y2="101.149"/>
				
					<line fill="none" stroke="#414A45" stroke-width="1.9964" stroke-miterlimit="10" x1="271.48" y1="89.771" x2="267.251" y2="89.771"/>
				
					<line fill="none" stroke="#414A45" stroke-width="1.9964" stroke-miterlimit="10" x1="271.48" y1="78.396" x2="267.251" y2="78.396"/>
				
					<line fill="none" stroke="#414A45" stroke-width="1.9964" stroke-miterlimit="10" x1="271.48" y1="67.024" x2="267.251" y2="67.024"/>
				
					<line fill="none" stroke="#414A45" stroke-width="1.9964" stroke-miterlimit="10" x1="271.48" y1="55.646" x2="267.251" y2="55.646"/>
			</g>
			<g id="XMLID_268_">
				<g>
					<g id="XMLID_269_">
						<g>
							<path fill="#FFFFFF" d="M430.702,70.984c7.229,0,13.063,5.858,13.063,13.067c0,7.208-5.834,13.064-13.063,13.064         c-7.21,0-13.044-5.857-13.044-13.064C417.658,76.843,423.492,70.984,430.702,70.984z M434.105,85.427l5.482-3.991h-6.783         l-2.103-6.463l-2.102,6.463h-6.765l5.482,3.991l-2.1,6.438l5.483-3.989l5.506,3.989L434.105,85.427z"/>
							<path fill="#F6B519" d="M450.741,80.762c0.42,2.425,0,4.78-1.073,6.812c0.352,2.38-0.094,4.781-1.329,6.882         c-1.189,2.098-3.034,3.664-5.202,4.574c-1.26,2.029-3.15,3.569-5.435,4.408c-1.167,0.421-2.407,0.63-3.665,0.63         c-1.119,0-2.216-0.164-3.241-0.489c-1.053,0.348-2.169,0.536-3.314,0.536c-1.26,0-2.496-0.234-3.685-0.651         c-2.313-0.842-4.129-2.404-5.365-4.342c-2.195-0.885-4.084-2.474-5.299-4.595c-1.232-2.124-1.635-4.504-1.326-6.766         c-1.147-2.102-1.541-4.527-1.124-6.929c0.422-2.403,1.657-4.503,3.339-6.067c0.487-2.264,1.704-4.387,3.591-5.995         c1.82-1.517,4.109-2.38,6.465-2.475c1.821-1.446,4.106-2.284,6.601-2.284c2.474,0,4.735,0.838,6.532,2.214         c2.406,0.094,4.715,0.956,6.556,2.496c1.867,1.587,3.057,3.687,3.571,5.903C449.064,76.188,450.3,78.311,450.741,80.762z          M443.766,84.051c0-7.208-5.834-13.067-13.063-13.067c-7.21,0-13.044,5.858-13.044,13.067         c0,7.208,5.834,13.064,13.044,13.064C437.932,97.116,443.766,91.259,443.766,84.051z"/>
							<polygon fill="#F6B519" points="439.588,81.437 434.105,85.427 436.208,91.865 430.702,87.876 425.219,91.865          427.318,85.427 421.836,81.437 428.601,81.437 430.702,74.974 432.805,81.437        "/>
						</g>
						<g>
							<path fill="none" stroke="#414A45" stroke-width="1.9964" stroke-miterlimit="10" d="M443.766,84.051         c0-7.208-5.834-13.067-13.063-13.067c-7.21,0-13.044,5.858-13.044,13.067c0,7.208,5.834,13.064,13.044,13.064         C437.932,97.116,443.766,91.259,443.766,84.051z"/>
							<path fill="none" stroke="#414A45" stroke-width="1.9964" stroke-miterlimit="10" d="M450.741,80.762         c-0.441-2.452-1.677-4.575-3.404-6.138c-0.515-2.216-1.704-4.316-3.571-5.903c-1.841-1.54-4.149-2.402-6.556-2.496         c-1.797-1.376-4.059-2.214-6.532-2.214c-2.494,0-4.779,0.838-6.601,2.284c-2.355,0.094-4.645,0.958-6.465,2.475         c-1.887,1.608-3.104,3.731-3.591,5.995c-1.682,1.564-2.917,3.664-3.339,6.067c-0.417,2.402-0.023,4.828,1.124,6.929         c-0.309,2.262,0.094,4.642,1.326,6.766c1.215,2.121,3.104,3.71,5.299,4.595c1.236,1.938,3.053,3.5,5.365,4.342         c1.188,0.417,2.425,0.651,3.685,0.651c1.146,0,2.262-0.188,3.314-0.536c1.025,0.325,2.122,0.489,3.241,0.489         c1.258,0,2.498-0.209,3.665-0.63c2.284-0.838,4.175-2.378,5.435-4.408c2.168-0.911,4.013-2.477,5.202-4.574         c1.235-2.102,1.681-4.502,1.329-6.882C450.741,85.542,451.161,83.187,450.741,80.762z"/>
							<polygon fill="none" stroke="#414A45" stroke-width="1.9964" stroke-miterlimit="10" points="430.702,74.974 432.805,81.437          439.588,81.437 434.105,85.427 436.208,91.865 430.702,87.876 425.219,91.865 427.318,85.427 421.836,81.437 428.601,81.437                 "/>
							<polyline fill="none" stroke="#414A45" stroke-width="1.9964" stroke-linecap="round" stroke-miterlimit="10" points="         421.231,106.051 421.231,129.008 430.702,118.79        "/>
							<polyline fill="none" stroke="#414A45" stroke-width="1.9964" stroke-linecap="round" stroke-miterlimit="10" points="         430.702,118.79 440.197,129.008 440.197,106.051        "/>
							
								<line fill="none" stroke="#414A45" stroke-width="1.9964" stroke-miterlimit="10" x1="401.676" y1="85.195" x2="398.716" y2="85.195"/>
							
								<line fill="none" stroke="#414A45" stroke-width="1.9964" stroke-miterlimit="10" x1="402.588" y1="90.512" x2="399.812" y2="91.54"/>
							
								<line fill="none" stroke="#414A45" stroke-width="1.9964" stroke-miterlimit="10" x1="405.2" y1="95.156" x2="402.939" y2="97.139"/>
							
								<line fill="none" stroke="#414A45" stroke-width="1.9964" stroke-miterlimit="10" x1="409.213" y1="98.609" x2="407.724" y2="101.269"/>
							
								<line fill="none" stroke="#414A45" stroke-width="1.9964" stroke-miterlimit="10" x1="409.166" y1="71.754" x2="407.673" y2="69.119"/>
							
								<line fill="none" stroke="#414A45" stroke-width="1.9964" stroke-miterlimit="10" x1="405.178" y1="75.23" x2="402.892" y2="73.248"/>
							
								<line fill="none" stroke="#414A45" stroke-width="1.9964" stroke-miterlimit="10" x1="402.565" y1="79.896" x2="399.789" y2="78.847"/>
							
								<line fill="none" stroke="#414A45" stroke-width="1.9964" stroke-miterlimit="10" x1="459.749" y1="85.195" x2="462.712" y2="85.195"/>
							
								<line fill="none" stroke="#414A45" stroke-width="1.9964" stroke-miterlimit="10" x1="458.836" y1="90.512" x2="461.616" y2="91.54"/>
							
								<line fill="none" stroke="#414A45" stroke-width="1.9964" stroke-miterlimit="10" x1="456.228" y1="95.156" x2="458.488" y2="97.139"/>
							
								<line fill="none" stroke="#414A45" stroke-width="1.9964" stroke-miterlimit="10" x1="452.211" y1="98.609" x2="453.709" y2="101.269"/>
							
								<line fill="none" stroke="#414A45" stroke-width="1.9964" stroke-miterlimit="10" x1="452.261" y1="71.754" x2="453.751" y2="69.119"/>
							
								<line fill="none" stroke="#414A45" stroke-width="1.9964" stroke-miterlimit="10" x1="456.251" y1="75.23" x2="458.512" y2="73.248"/>
							
								<line fill="none" stroke="#414A45" stroke-width="1.9964" stroke-miterlimit="10" x1="458.862" y1="79.896" x2="461.64" y2="78.847"/>
						</g>
					</g>
				</g>
			</g>
			<g>
				<g>
					<g>
						<g>
							<polyline fill="none" stroke="#414A45" stroke-width="1.9964" stroke-miterlimit="10" points="247.445,193.462          247.445,244.539 197.787,244.539 197.787,180.915 234.306,180.915        "/>
							<g>
								<path fill="none" stroke="#414A45" stroke-width="1.9964" stroke-miterlimit="10" d="M237.443,181.277l9.278,9.277          l-10.091,1.279L237.443,181.277z"/>
							</g>
						</g>
					</g>
					<g>
						<polyline fill="none" stroke="#414A45" stroke-width="1.9964" stroke-miterlimit="10" points="205.49,227.534 205.49,236.944         214.901,236.944 214.901,230.229       "/>
						<polyline fill="none" stroke="#414A45" stroke-width="1.9964" stroke-miterlimit="10" points="207.697,224.113         211.269,229.636 219.546,222.989       "/>
					</g>
					<g>
						
							<line fill="none" stroke="#414A45" stroke-width="1.9964" stroke-miterlimit="10" x1="204.192" y1="193.134" x2="219.089" y2="193.134"/>
						
							<line fill="none" stroke="#414A45" stroke-width="1.9964" stroke-miterlimit="10" x1="204.192" y1="198.649" x2="240.054" y2="198.649"/>
						
							<line fill="none" stroke="#414A45" stroke-width="1.9964" stroke-miterlimit="10" x1="204.192" y1="203.52" x2="240.054" y2="203.52"/>
						
							<line fill="none" stroke="#414A45" stroke-width="1.9964" stroke-miterlimit="10" x1="204.192" y1="208.386" x2="240.054" y2="208.386"/>
						
							<line fill="none" stroke="#414A45" stroke-width="1.9964" stroke-miterlimit="10" x1="204.192" y1="213.255" x2="240.054" y2="213.255"/>
					</g>
				</g>
			</g>
			<g id="XMLID_270_">
				<g>
					<g id="XMLID_271_">
						<g>
							<polygon fill="#FFCF5D" points="245.37,142.731 245.534,142.862 225.707,167.533 225.613,167.269 234.24,142.731        "/>
							<polygon fill="#F6B519" points="237.902,132.321 234.305,142.554 225.544,132.632 225.544,132.321        "/>
							<polygon fill="#F6B519" points="238.036,132.321 245.71,142.642 245.534,142.862 245.37,142.731 234.24,142.731          234.305,142.554 237.902,132.321        "/>
							<polygon fill="#FFCF5D" points="225.544,132.632 234.305,142.554 234.24,142.731 216.985,142.731 216.923,142.55        "/>
							<polygon fill="#F6B519" points="234.24,142.731 225.613,167.269 216.985,142.731        "/>
							<polygon fill="#F6B519" points="225.544,132.321 225.544,132.632 216.923,142.55 213.326,132.321        "/>
							<polygon fill="#F6B519" points="216.923,142.55 216.985,142.731 205.857,142.731 205.691,142.862 205.516,142.642          213.189,132.321 213.326,132.321        "/>
							<polygon fill="#FFCF5D" points="225.613,167.269 225.519,167.533 205.691,142.862 205.857,142.731 216.985,142.731                 "/>
						</g>
						<g>
							<polygon fill="none" stroke="#414A45" stroke-width="1.9964" stroke-miterlimit="10" points="237.902,132.321          238.036,132.321 245.71,142.642 245.534,142.862 225.707,167.533 225.613,167.651 225.519,167.533 205.691,142.862          205.516,142.642 213.189,132.321 213.326,132.321 225.544,132.321        "/>
							<polyline fill="none" stroke="#414A45" stroke-width="1.9964" stroke-miterlimit="10" points="205.689,142.731          216.985,142.731 234.24,142.731 245.533,142.731        "/>
							<polyline fill="none" stroke="#414A45" stroke-width="1.9964" stroke-miterlimit="10" points="213.326,132.321          216.923,142.55 216.985,142.731 225.613,167.269 225.707,167.533 225.749,167.651        "/>
							<polyline fill="none" stroke="#414A45" stroke-width="1.9964" stroke-miterlimit="10" points="225.477,167.651          225.519,167.533 225.613,167.269 234.24,142.731 234.305,142.554 237.902,132.321        "/>
							<polyline fill="none" stroke="#414A45" stroke-width="1.9964" stroke-miterlimit="10" points="216.822,142.668          216.923,142.55 225.544,132.632 234.305,142.554 234.404,142.668        "/>
						</g>
					</g>
				</g>
			</g>
			<g>
				<g>
					<path fill="#FCBF10" d="M159.318,122.338c-0.579,2.46-3.045,3.981-5.506,3.402c-2.462-0.581-3.981-3.047-3.4-5.508       c0.579-2.458,3.043-3.981,5.504-3.402C158.379,117.409,159.902,119.878,159.318,122.338z"/>
					<path fill="none" stroke="#414A45" stroke-width="1.9964" stroke-miterlimit="10" d="M159.318,122.338       c-0.579,2.46-3.045,3.981-5.506,3.402c-2.462-0.581-3.981-3.047-3.4-5.508c0.579-2.458,3.043-3.981,5.504-3.402       C158.379,117.409,159.902,119.878,159.318,122.338z"/>
				</g>
				<g>
					<circle fill="#DFE3E5" cx="165.831" cy="114.056" r="3.444"/>
					<circle fill="none" stroke="#414A45" stroke-width="1.9964" stroke-miterlimit="10" cx="165.831" cy="114.056" r="3.444"/>
				</g>
				<g>
					
						<line fill="none" stroke="#414A45" stroke-width="1.9964" stroke-miterlimit="10" x1="241.385" y1="111.537" x2="181.977" y2="111.537"/>
					
						<line fill="none" stroke="#414A45" stroke-width="1.9964" stroke-miterlimit="10" x1="180.295" y1="111.537" x2="176.278" y2="111.537"/>
					
						<line fill="none" stroke="#414A45" stroke-width="1.9964" stroke-miterlimit="10" x1="172.29" y1="118.158" x2="189.227" y2="118.158"/>
					
						<line fill="none" stroke="#414A45" stroke-width="1.9964" stroke-miterlimit="10" x1="190.909" y1="118.158" x2="227.058" y2="118.158"/>
				</g>
			</g>
			<g>
				<g>
					<circle fill="#FCBF10" cx="307.059" cy="256.258" r="4.155"/>
					<circle fill="none" stroke="#414A45" stroke-width="1.9964" stroke-miterlimit="10" cx="307.059" cy="256.258" r="4.155"/>
				</g>
				<g>
					<circle fill="#DFE3E5" cx="297.102" cy="262.822" r="3.127"/>
					<circle fill="none" stroke="#414A45" stroke-width="1.9964" stroke-miterlimit="10" cx="297.102" cy="262.822" r="3.127"/>
				</g>
				<g>
					
						<line fill="none" stroke="#414A45" stroke-width="1.9964" stroke-miterlimit="10" x1="257.679" y1="265.109" x2="282.442" y2="265.109"/>
					
						<line fill="none" stroke="#414A45" stroke-width="1.9964" stroke-miterlimit="10" x1="283.971" y1="265.109" x2="287.617" y2="265.109"/>
					
						<line fill="none" stroke="#414A45" stroke-width="1.9964" stroke-miterlimit="10" x1="291.239" y1="259.098" x2="275.86" y2="259.098"/>
					
						<line fill="none" stroke="#414A45" stroke-width="1.9964" stroke-miterlimit="10" x1="274.333" y1="259.098" x2="270.687" y2="259.098"/>
				</g>
			</g>
			<g>
				<g>
					<path fill="none" stroke="#414A45" stroke-width="1.9964" stroke-miterlimit="10" d="M248.779,63.035       c-0.401,6.243-2.515,12.236-6.146,16.561c-0.678,1.32-1.164,2.071-1.164,2.071l-0.084,20.506v10.289"/>
					<path fill="none" stroke="#414A45" stroke-width="1.9964" stroke-miterlimit="10" d="M226.14,37.575       c-9.752,0.977-17.729,7.977-20.154,17.225l-6.713,17.099l6.521-0.006l-0.184,13.01c0,0,0.83,7.885,8.384,8.052l4.484,0.082       v9.136"/>
					<ellipse fill="#282D33" cx="212.031" cy="62.25" rx="2.039" ry="2.09"/>
				</g>
				<g>
					<g>
						<g>
							<path fill-rule="evenodd" clip-rule="evenodd" fill="#E1F0F0" d="M243.938,47.269l-9.764,1.913         c0.883,4.597,4.892,8.031,9.764,8.031c5.521,0,9.941-4.42,9.941-9.943c0-5.521-4.414-9.938-9.936-9.943L243.938,47.269         L243.938,47.269z"/>
						</g>
					</g>
					<g>
						<g>
							
								<path fill-rule="evenodd" clip-rule="evenodd" fill="none" stroke="#414A45" stroke-width="1.9964" stroke-miterlimit="10" d="         M243.938,47.269l-9.764,1.913c0.883,4.597,4.892,8.031,9.764,8.031c5.521,0,9.941-4.42,9.941-9.943         c0-5.521-4.414-9.938-9.936-9.943L243.938,47.269L243.938,47.269z"/>
						</g>
					</g>
					<g>
						<path fill-rule="evenodd" clip-rule="evenodd" fill="#00A1DF" d="M241.023,44.755l-0.008-9.943        c-5.52,0.004-9.936,4.422-9.936,9.943c0,0.655,0.063,1.295,0.181,1.915L241.023,44.755L241.023,44.755z"/>
					</g>
					<g>
						
							<path fill-rule="evenodd" clip-rule="evenodd" fill="none" stroke="#414A45" stroke-width="1.9964" stroke-miterlimit="10" d="        M241.023,44.755l-0.008-9.943c-5.52,0.004-9.936,4.422-9.936,9.943c0,0.655,0.063,1.295,0.181,1.915L241.023,44.755        L241.023,44.755z"/>
					</g>
				</g>
			</g>
			<g>
				
					<line fill="none" stroke="#414A45" stroke-width="1.9964" stroke-miterlimit="10" x1="531.976" y1="133.29" x2="538.078" y2="136.635"/>
				
					<line fill="none" stroke="#414A45" stroke-width="1.9964" stroke-miterlimit="10" x1="535.895" y1="121.667" x2="542.773" y2="122.727"/>
				
					<line fill="none" stroke="#414A45" stroke-width="1.9964" stroke-miterlimit="10" x1="535.602" y1="109.41" x2="542.429" y2="108.049"/>
				
					<line fill="none" stroke="#414A45" stroke-width="1.9964" stroke-miterlimit="10" x1="531.137" y1="97.987" x2="537.086" y2="94.376"/>
				
					<line fill="none" stroke="#414A45" stroke-width="1.9964" stroke-miterlimit="10" x1="523.034" y1="88.781" x2="527.387" y2="83.351"/>
				
					<line fill="none" stroke="#414A45" stroke-width="1.9964" stroke-miterlimit="10" x1="512.268" y1="82.9" x2="514.506" y2="76.311"/>
				
					<line fill="none" stroke="#414A45" stroke-width="1.9964" stroke-miterlimit="10" x1="500.145" y1="81.062" x2="499.993" y2="74.1"/>
				
					<line fill="none" stroke="#414A45" stroke-width="1.9964" stroke-miterlimit="10" x1="488.119" y1="83.474" x2="485.598" y2="76.989"/>
				
					<line fill="none" stroke="#414A45" stroke-width="1.9964" stroke-miterlimit="10" x1="477.65" y1="89.855" x2="473.061" y2="84.622"/>
			</g>
			<g>
				<rect x="153.417" y="158.156" fill="#FFFFFF" width="54.233" height="58.353"/>
				<g>
					<rect x="159.931" y="167.409" fill="#76CCD3" width="10.411" height="10.113"/>
					<g opacity="0.5">
						
							<line fill="none" stroke="#414A45" stroke-width="1.9964" stroke-miterlimit="10" x1="173.163" y1="182.368" x2="190.421" y2="182.368"/>
						
							<line fill="none" stroke="#414A45" stroke-width="1.9964" stroke-miterlimit="10" x1="196.082" y1="186.478" x2="199.807" y2="186.478"/>
						
							<line fill="none" stroke="#414A45" stroke-width="1.9964" stroke-miterlimit="10" x1="187.679" y1="186.478" x2="193.324" y2="186.478"/>
						
							<line fill="none" stroke="#414A45" stroke-width="1.9964" stroke-miterlimit="10" x1="173.163" y1="186.478" x2="184.84" y2="186.478"/>
						
							<line fill="none" stroke="#414A45" stroke-width="1.9964" stroke-miterlimit="10" x1="183.598" y1="190.589" x2="195.419" y2="190.589"/>
						
							<line fill="none" stroke="#414A45" stroke-width="1.9964" stroke-miterlimit="10" x1="173.163" y1="190.589" x2="180.09" y2="190.589"/>
						
							<line fill="none" stroke="#414A45" stroke-width="1.9964" stroke-miterlimit="10" x1="173.163" y1="194.698" x2="198.001" y2="194.698"/>
					</g>
					<g opacity="0.5">
						
							<line fill="none" stroke="#414A45" stroke-width="1.9964" stroke-miterlimit="10" x1="173.163" y1="168.337" x2="190.421" y2="168.337"/>
						
							<line fill="none" stroke="#414A45" stroke-width="1.9964" stroke-miterlimit="10" x1="196.082" y1="171.232" x2="199.807" y2="171.232"/>
						
							<line fill="none" stroke="#414A45" stroke-width="1.9964" stroke-miterlimit="10" x1="187.679" y1="171.232" x2="193.324" y2="171.232"/>
						
							<line fill="none" stroke="#414A45" stroke-width="1.9964" stroke-miterlimit="10" x1="173.163" y1="171.232" x2="184.84" y2="171.232"/>
						
							<line fill="none" stroke="#414A45" stroke-width="1.9964" stroke-miterlimit="10" x1="183.598" y1="174.131" x2="195.419" y2="174.131"/>
						
							<line fill="none" stroke="#414A45" stroke-width="1.9964" stroke-miterlimit="10" x1="173.163" y1="174.131" x2="180.09" y2="174.131"/>
						
							<line fill="none" stroke="#414A45" stroke-width="1.9964" stroke-miterlimit="10" x1="173.163" y1="177.028" x2="198.001" y2="177.028"/>
					</g>
					<rect x="159.931" y="181.638" fill="#DFE3E5" width="10.411" height="14.347"/>
					<rect x="159.931" y="201.572" fill="#DFE3E5" width="41.093" height="10.115"/>
				</g>
				
					<rect x="153.417" y="158.156" fill="none" stroke="#414A45" stroke-width="1.9964" stroke-miterlimit="10" width="54.233" height="58.353"/>
			</g>
		</g>
	</g>
	<g>
		<g>
			<rect x="258.519" y="132.03" fill="#FFFFFF" width="145.808" height="112.192"/>
			
				<rect x="258.519" y="132.03" fill="none" stroke="#414A45" stroke-width="1.9964" stroke-miterlimit="10" width="145.808" height="112.192"/>
		</g>
		<g>
			<rect x="253.68" y="127.175" fill="#76CCD3" width="155.482" height="12.711"/>
			
				<rect x="253.68" y="127.175" fill="none" stroke="#414A45" stroke-width="1.9964" stroke-miterlimit="10" width="155.482" height="12.711"/>
		</g>
		
			<line fill="none" stroke="#414A45" stroke-width="1.9964" stroke-miterlimit="10" x1="246.915" y1="244.49" x2="415.931" y2="244.49"/>
		
			<line fill="none" stroke="#414A45" stroke-width="1.9964" stroke-miterlimit="10" x1="331.422" y1="245.133" x2="331.422" y2="259.668"/>
		<path fill="none" stroke="#414A45" stroke-width="1.9964" stroke-miterlimit="10" d="M339.6,266.922    c0,4.513-3.662,8.172-8.178,8.172c-4.515,0-8.177-3.659-8.177-8.172c0-4.516,3.662-8.18,8.177-8.18    C335.938,258.742,339.6,262.406,339.6,266.922z"/>
		<g>
			<g opacity="0.2">
				<rect x="360.73" y="167.942" width="13.565" height="9.182"/>
				<rect x="360.73" y="167.942" stroke="#414A45" stroke-width="0.1742" stroke-miterlimit="10" width="13.565" height="9.182"/>
			</g>
			<g>
				<rect x="379.496" y="167.942" fill="#E18859" width="13.565" height="9.182"/>
				<rect x="379.496" y="167.942" fill="#E18859" width="13.565" height="9.182"/>
			</g>
			<g opacity="0.2">
				<rect x="269.786" y="182" width="13.566" height="9.182"/>
				<rect x="269.786" y="182" stroke="#414A45" stroke-width="0.1742" stroke-miterlimit="10" width="13.566" height="9.182"/>
			</g>
			<g opacity="0.2">
				<rect x="287.898" y="182" width="13.566" height="9.182"/>
				<rect x="287.898" y="182" stroke="#414A45" stroke-width="0.1742" stroke-miterlimit="10" width="13.566" height="9.182"/>
			</g>
			<g opacity="0.2">
				<rect x="306.561" y="182" width="13.566" height="9.182"/>
				<rect x="306.561" y="182" stroke="#414A45" stroke-width="0.1742" stroke-miterlimit="10" width="13.566" height="9.182"/>
			</g>
			<g opacity="0.2">
				<rect x="324.674" y="182" width="13.565" height="9.182"/>
				<rect x="324.674" y="182" stroke="#414A45" stroke-width="0.1742" stroke-miterlimit="10" width="13.565" height="9.182"/>
			</g>
			<g opacity="0.2">
				<rect x="342.617" y="182" width="13.565" height="9.182"/>
				<rect x="342.617" y="182" stroke="#414A45" stroke-width="0.1742" stroke-miterlimit="10" width="13.565" height="9.182"/>
			</g>
			<g opacity="0.2">
				<rect x="306.561" y="167.942" width="13.566" height="9.182"/>
				<rect x="306.561" y="167.942" stroke="#414A45" stroke-width="0.1742" stroke-miterlimit="10" width="13.566" height="9.182"/>
			</g>
			<g opacity="0.2">
				<rect x="268.808" y="148.75" width="43.692" height="12.5"/>
				<rect x="268.808" y="148.75" stroke="#414A45" stroke-width="0.3648" stroke-miterlimit="10" width="73.81" height="12.5"/>
			</g>
			<g opacity="0.2">
				<rect x="369.333" y="148.75" width="23.921" height="3"/>
				<rect x="369.333" y="148.75" stroke="#414A45" stroke-width="0.1322" stroke-miterlimit="10" width="23.921" height="3"/>
			</g>
			<g opacity="0.2">
				<rect x="360.73" y="154.25" width="11.961" height="3"/>
				<rect x="360.73" y="154.25" stroke="#414A45" stroke-width="0.0935" stroke-miterlimit="10" width="11.961" height="3"/>
			</g>
			<g opacity="0.2">
				<rect x="375.5" y="154.25" width="17.755" height="3"/>
				<rect x="375.5" y="154.25" stroke="#414A45" stroke-width="0.1139" stroke-miterlimit="10" width="17.755" height="3"/>
			</g>
			<g opacity="0.2">
				<rect x="324.674" y="167.942" width="13.565" height="9.182"/>
				<rect x="324.674" y="167.942" stroke="#414A45" stroke-width="0.1742" stroke-miterlimit="10" width="13.565" height="9.182"/>
			</g>
			<g opacity="0.2">
				<rect x="342.617" y="167.942" width="13.565" height="9.182"/>
				<rect x="342.617" y="167.942" stroke="#414A45" stroke-width="0.1742" stroke-miterlimit="10" width="13.565" height="9.182"/>
			</g>
			<g opacity="0.2">
				<rect x="360.73" y="182" width="13.565" height="9.182"/>
				<rect x="360.73" y="182" stroke="#414A45" stroke-width="0.1742" stroke-miterlimit="10" width="13.565" height="9.182"/>
			</g>
			<g>
				<rect x="379.496" y="182" fill="#E18859" width="13.565" height="9.182"/>
				<rect x="379.496" y="182" fill="#E18859" width="13.565" height="9.182"/>
			</g>
			<g opacity="0.2">
				<rect x="269.786" y="196.174" width="13.566" height="9.182"/>
				<rect x="269.786" y="196.174" stroke="#414A45" stroke-width="0.1742" stroke-miterlimit="10" width="13.566" height="9.182"/>
			</g>
			<g opacity="0.2">
				<rect x="287.898" y="196.174" width="13.566" height="9.182"/>
				<rect x="287.898" y="196.174" stroke="#414A45" stroke-width="0.1742" stroke-miterlimit="10" width="13.566" height="9.182"/>
			</g>
			<g opacity="0.2">
				<rect x="306.561" y="196.174" width="13.566" height="9.182"/>
				<rect x="306.561" y="196.174" stroke="#414A45" stroke-width="0.1742" stroke-miterlimit="10" width="13.566" height="9.182"/>
			</g>
			<g opacity="0.2">
				<rect x="324.674" y="196.174" width="13.565" height="9.182"/>
				<rect x="324.674" y="196.174" stroke="#414A45" stroke-width="0.1742" stroke-miterlimit="10" width="13.565" height="9.182"/>
			</g>
			<g opacity="0.2">
				<rect x="342.617" y="196.174" width="13.565" height="9.182"/>
				<rect x="342.617" y="196.174" stroke="#414A45" stroke-width="0.1742" stroke-miterlimit="10" width="13.565" height="9.182"/>
			</g>
			<g opacity="0.2">
				<rect x="360.73" y="196.174" width="13.565" height="9.182"/>
				<rect x="360.73" y="196.174" stroke="#414A45" stroke-width="0.1742" stroke-miterlimit="10" width="13.565" height="9.182"/>
			</g>
			<g>
				<rect x="379.496" y="196.174" fill="#E18859" width="13.565" height="9.182"/>
				<rect x="379.496" y="196.174" fill="#E18859" width="13.565" height="9.182"/>
			</g>
			<g opacity="0.2">
				<rect x="269.786" y="209.869" width="13.566" height="9.182"/>
				<rect x="269.786" y="209.869" stroke="#414A45" stroke-width="0.1742" stroke-miterlimit="10" width="13.566" height="9.182"/>
			</g>
			<g opacity="0.2">
				<rect x="287.898" y="209.869" width="13.566" height="9.182"/>
				<rect x="287.898" y="209.869" stroke="#414A45" stroke-width="0.1742" stroke-miterlimit="10" width="13.566" height="9.182"/>
			</g>
			<g opacity="0.2">
				<rect x="306.561" y="209.869" width="13.566" height="9.182"/>
				<rect x="306.561" y="209.869" stroke="#414A45" stroke-width="0.1742" stroke-miterlimit="10" width="13.566" height="9.182"/>
			</g>
			<g opacity="0.2">
				<rect x="324.674" y="209.869" width="13.565" height="9.182"/>
				<rect x="324.674" y="209.869" stroke="#414A45" stroke-width="0.1742" stroke-miterlimit="10" width="13.565" height="9.182"/>
			</g>
			<g opacity="0.2">
				<rect x="342.617" y="209.869" width="13.565" height="9.182"/>
				<rect x="342.617" y="209.869" stroke="#414A45" stroke-width="0.1742" stroke-miterlimit="10" width="13.565" height="9.182"/>
			</g>
			<g opacity="0.2">
				<rect x="360.73" y="209.869" width="13.565" height="9.182"/>
				<rect x="360.73" y="209.869" stroke="#414A45" stroke-width="0.1742" stroke-miterlimit="10" width="13.565" height="9.182"/>
			</g>
			<g>
				<rect x="379.496" y="209.869" fill="#E18859" width="13.565" height="9.182"/>
				<rect x="379.496" y="209.869" fill="#E18859" width="13.565" height="9.182"/>
			</g>
			<g opacity="0.2">
				<rect x="269.786" y="223.529" width="13.566" height="9.182"/>
				<rect x="269.786" y="223.529" stroke="#414A45" stroke-width="0.1742" stroke-miterlimit="10" width="13.566" height="9.182"/>
			</g>
			<g opacity="0.2">
				<rect x="287.898" y="223.529" width="13.566" height="9.182"/>
				<rect x="287.898" y="223.529" stroke="#414A45" stroke-width="0.1742" stroke-miterlimit="10" width="13.566" height="9.182"/>
			</g>
			<g opacity="0.2">
				<rect x="306.561" y="223.529" width="13.566" height="9.182"/>
				<rect x="306.561" y="223.529" stroke="#414A45" stroke-width="0.1742" stroke-miterlimit="10" width="13.566" height="9.182"/>
			</g>
			<g opacity="0.2">
				<rect x="324.674" y="223.529" width="13.565" height="9.182"/>
				<rect x="324.674" y="223.529" stroke="#414A45" stroke-width="0.1742" stroke-miterlimit="10" width="13.565" height="9.182"/>
			</g>
		</g>
	</g>
	<g id="XMLID_266_">
		<g>
			<g id="XMLID_267_">
				<g>
					<path fill="#DFE3E5" d="M460.04,259.31c1.498,0,2.711,1.219,2.711,2.714c0,1.494-1.213,2.688-2.711,2.688       c-1.493,0-2.71-1.194-2.71-2.688C457.33,260.528,458.547,259.31,460.04,259.31z"/>
					<polygon fill="#DFE3E5" points="457.097,244.413 461.109,250.004 429.131,272.973 425.114,267.379 452.398,247.785        454.129,246.607 454.087,246.566      "/>
					<path fill="#3EA4B9" d="M462.751,262.023c0-1.495-1.213-2.714-2.711-2.714c-1.493,0-2.71,1.219-2.71,2.714       c0,1.494,1.217,2.688,2.71,2.688C461.538,264.712,462.751,263.518,462.751,262.023z M461.301,250.262l31.836,35.62h-60.773       l-7.439-9.493L461.301,250.262z"/>
					<polygon fill="#F4F5F5" points="454.129,246.607 452.398,247.785 454.087,246.566      "/>
					<path fill="#58595B" d="M454.259,202.357c0.83,2.858-1.154,5.955-4.485,6.957l-3.072-10.334       C450.008,198,453.4,199.516,454.259,202.357z"/>
					<path fill="#FFFFFF" d="M423.855,256.022c0,0-9.796,0.962-16.947-3.843l-5.209-3.478l1.579-11.314l0.277,0.213       c0.195,0.021,4.612,0.236,8.239,0.236c4.27,0,5.146-0.257,5.786-1.048c0.577-0.726,4.675-9.008,8.029-15.82l-0.621-2.261       l-2.008-1.324l7.9-2.348l23.205,31.53l-1.688,1.219l-9.929,6.746l-12.465,8.581L423.855,256.022z"/>
					<polygon fill="#A6A8AB" points="446.529,198.962 446.4,199.005 421.34,206.477 413.783,208.739 414.738,211.961        416.898,219.199 422.981,217.384 430.882,215.036 449.645,209.443      "/>
					<polygon fill="#F4F5F5" points="413.974,209.763 414.594,211.877 412.2,210.297      "/>
					<polygon fill="#F4F5F5" points="412.2,210.297 405.864,212.197 404.771,210.896 407.611,208.716 409.681,208.633      "/>
					<path fill="#FFFFFF" d="M409.704,220.267c0.277,3.82,0.277,9.347-1.836,11.742c-1.132,1.13-2.605,1.387-4.013,1.28       c-0.043,0-0.104,0-0.152-0.021c-0.042,0-0.105,0-0.147-0.021c-0.233-0.021-0.473-0.064-0.706-0.107       c-0.616-0.126-1.193-0.297-1.704-0.469c-0.044-0.02-0.086-0.044-0.129-0.064l-2.284-9.072L409.704,220.267z"/>
					<polygon fill="#F4F5F5" points="405.864,212.197 401.356,213.52 404.771,210.896      "/>
					<path fill="#FFFFFF" d="M414.738,211.961l2.16,7.238l6.083-1.815l2.008,1.324l0.621,2.261       c-3.354,6.813-7.452,15.095-8.029,15.82c-0.64,0.791-1.517,1.048-5.786,1.048c-3.627,0-8.044-0.216-8.239-0.236l-0.277-0.213       l0.577-4.099c1.407,0.106,2.881-0.15,4.013-1.28c2.113-2.396,2.113-7.922,1.836-11.742l6.789-2.029l-1.899-6.36       L414.738,211.961z"/>
					<path fill="#FFFFFF" d="M403.278,237.388l-1.579,11.314l-3.249-2.155v-0.086c-1.364-0.685-2.194-1.431-2.279-1.517       l-14.771-16.246l11.417-3.395l6.664,6.616c0.276,0.151,0.83,0.428,1.536,0.686v0.021l0.917,3.65L403.278,237.388z"/>
					<path fill="#F4F5F5" d="M403.855,233.289l-0.577,4.099l-1.345-1.111l-0.917-3.65c0.043,0,0.085,0.024,0.129,0.044       c0.511,0.172,1.088,0.343,1.704,0.469c0.233,0.043,0.473,0.087,0.706,0.107c0.042,0.021,0.105,0.021,0.147,0.021       C403.751,233.289,403.813,233.289,403.855,233.289z"/>
					<path fill="#F4F5F5" d="M401.017,232.605c0.043,0.021,0.085,0.045,0.129,0.064c-0.044-0.02-0.086-0.044-0.129-0.044V232.605z"/>
					<path fill="#FFFFFF" d="M415.401,201.972c2.499,1.899,4.316,3.287,4.316,3.287l1.622,1.218l-7.557,2.263l0.955,3.222       l-0.145-0.084l-0.62-2.114l-1.773,0.534l-2.52-1.664l-2.069,0.083l-2.84,2.181l-5.167-6.233l-1.088-1.069l-11.568,10.524       c-2.604,2.009-6.192,1.729-7.986-0.62c-1.771-2.325,16.269-21.282,16.269-21.282c1.75-1.323,3.949-1.646,5.744-1.004       l0.361,0.148C401.785,191.574,410.133,197.918,415.401,201.972z"/>
					<path fill="#F4F5F5" d="M387.226,219.731l5.591,5.572l-11.417,3.395l-4.675-5.122c-0.344-0.387-0.344-0.961,0.019-1.323       c0.897-0.897,1.708-1.602,2.477-2.113l4.976-1.494C386.051,218.688,387.054,219.585,387.226,219.731z"/>
					<path fill="#F4F5F5" d="M384.195,218.646l-4.976,1.494c1.688-1.153,3.182-1.494,4.847-1.494       C384.109,218.646,384.152,218.646,384.195,218.646z"/>
					<g>
						<path fill="#A6A8AB" d="M414.594,211.877l-2.394-1.58l-6.336,1.9l-4.508,1.322l-17.161,5.126        c1.855,0.042,2.858,0.939,3.03,1.086l5.591,5.572l5.916-1.771l10.972-3.267l6.789-2.029L414.594,211.877z"/>
						<path fill="#A6A8AB" d="M376.743,222.253c0.897-0.897,1.708-1.602,2.477-2.113l-17.805,5.314l2.52,8.453l17.465-5.209        l-4.675-5.122C376.381,223.189,376.381,222.615,376.743,222.253z"/>
					</g>
					<polygon fill="#F4F5F5" points="360.924,225.645 363.42,234.015 349.417,233.631      "/>
				</g>
				<g>
					
						<line fill="none" stroke="#414A45" stroke-width="1.9964" stroke-linecap="round" stroke-linejoin="round" stroke-miterlimit="10" x1="401.017" y1="232.605" x2="398.732" y2="223.533"/>
					
						<line fill="none" stroke="#414A45" stroke-width="1.9964" stroke-linecap="round" stroke-linejoin="round" stroke-miterlimit="10" x1="401.356" y1="213.52" x2="404.771" y2="210.896"/>
					
						<path fill="none" stroke="#414A45" stroke-width="1.9964" stroke-linecap="round" stroke-linejoin="round" stroke-miterlimit="10" d="       M419.718,205.259c0,0-1.817-1.388-4.316-3.287c-5.269-4.054-13.616-10.397-14.065-10.611l-0.361-0.148       c-1.795-0.642-3.994-0.319-5.744,1.004c0,0-18.039,18.957-16.269,21.282c1.794,2.35,5.382,2.629,7.986,0.62l11.568-10.524       l1.088,1.069l5.167,6.233l1.093,1.301"/>
					
						<line fill="none" stroke="#414A45" stroke-width="1.9964" stroke-linecap="round" stroke-linejoin="round" stroke-miterlimit="10" x1="421.34" y1="206.477" x2="419.718" y2="205.259"/>
					
						<path fill="none" stroke="#414A45" stroke-width="1.9964" stroke-linecap="round" stroke-linejoin="round" stroke-miterlimit="10" d="       M401.699,248.702l5.209,3.478c7.151,4.805,16.947,3.843,16.947,3.843l6.149,7.09l12.465-8.581l9.929-6.746l1.73-1.178       l-0.042-0.041l-23.205-31.53"/>
					
						<path fill="none" stroke="#414A45" stroke-width="1.9964" stroke-linecap="round" stroke-linejoin="round" stroke-miterlimit="10" d="       M409.704,220.267c0.277,3.82,0.277,9.347-1.836,11.742c-1.132,1.13-2.605,1.387-4.013,1.28"/>
					
						<polygon fill="none" stroke="#414A45" stroke-width="1.9964" stroke-linecap="round" stroke-linejoin="round" stroke-miterlimit="10" points="       422.981,217.384 416.898,219.199 414.738,211.961 413.783,208.739 421.34,206.477 446.4,199.005 446.529,198.962        449.645,209.443 430.882,215.036      "/>
					
						<path fill="none" stroke="#414A45" stroke-width="1.9964" stroke-linecap="round" stroke-linejoin="round" stroke-miterlimit="10" d="       M454.259,202.357c-0.858-2.842-4.251-4.357-7.558-3.377l3.072,10.334C453.104,208.313,455.089,205.216,454.259,202.357z"/>
					
						<polyline fill="none" stroke="#414A45" stroke-width="1.9964" stroke-linecap="round" stroke-linejoin="round" stroke-miterlimit="10" points="       384.195,218.646 401.356,213.52 405.864,212.197 412.2,210.297 413.974,209.763 414.594,211.877 416.493,218.237        409.704,220.267 398.732,223.533 392.816,225.304      "/>
					
						<polyline fill="none" stroke="#414A45" stroke-width="1.9964" stroke-linecap="round" stroke-linejoin="round" stroke-miterlimit="10" points="       381.399,228.698 363.935,233.907 361.415,225.454 379.22,220.14      "/>
					
						<polygon fill="none" stroke="#414A45" stroke-width="1.9964" stroke-linecap="round" stroke-linejoin="round" stroke-miterlimit="10" points="       363.42,234.015 349.417,233.631 360.924,225.645      "/>
					<polyline fill="none" stroke="#414A45" stroke-width="1.9964" stroke-miterlimit="10" points="446.807,200.371 446.4,199.005        444.692,193.261 415.401,201.972 408.979,203.892      "/>
					
						<path fill="none" stroke="#414A45" stroke-width="1.9964" stroke-linecap="round" stroke-linejoin="round" stroke-miterlimit="10" d="       M403.855,233.289c-0.043,0-0.104,0-0.152-0.021c-0.042,0-0.105,0-0.147-0.021c-0.233-0.021-0.473-0.064-0.706-0.107       c-0.616-0.126-1.193-0.297-1.704-0.469c-0.044-0.02-0.086-0.044-0.129-0.044v-0.021c-0.706-0.258-1.26-0.534-1.536-0.686       l-6.664-6.616l-5.591-5.572c-0.172-0.146-1.175-1.044-3.03-1.086c-0.043,0-0.086,0-0.129,0c-1.665,0-3.159,0.341-4.847,1.494       c-0.769,0.512-1.579,1.216-2.477,2.113c-0.362,0.362-0.362,0.937-0.019,1.323l4.675,5.122l14.771,16.246       c0.085,0.086,0.915,0.832,2.279,1.517v0.086l3.249,2.155"/>
					
						<polygon fill="none" stroke="#414A45" stroke-width="1.9964" stroke-linecap="round" stroke-linejoin="round" stroke-miterlimit="10" points="       452.398,247.785 425.114,267.379 429.131,272.973 461.109,250.004 457.097,244.413 454.087,246.566      "/>
					<polyline fill="none" stroke="#414A45" stroke-width="1.9964" stroke-miterlimit="10" points="493.137,285.882        461.301,250.262 424.924,276.389 432.363,285.882      "/>
					
						<path fill="none" stroke="#414A45" stroke-width="1.9964" stroke-linecap="round" stroke-linejoin="round" stroke-miterlimit="10" d="       M457.33,262.023c0-1.495,1.217-2.714,2.71-2.714c1.498,0,2.711,1.219,2.711,2.714c0,1.494-1.213,2.688-2.711,2.688       C458.547,264.712,457.33,263.518,457.33,262.023z"/>
				</g>
			</g>
		</g>
	</g>
	<g>
		<g>
			<path fill="#E18859" d="M331.457,210.442c-9.287,0-11.236-4.613-11.236-8.483c0-5.542,4.095-8.72,11.236-8.72v3.197     c-8.039,0-8.039,4.156-8.039,5.522c0,2.461,0.914,5.286,8.039,5.286c4.001,0,8.038-2.124,8.038-6.869     c0-5.174-2.013-8.62-11.832-8.62v-3.197c6.452,0,15.029,1.225,15.029,11.817C342.692,206.303,338.072,210.442,331.457,210.442z"/>
		</g>
	</g>
</g>
</svg>
